<?xml version="1.0" encoding="UTF-8" ?>
<!DOCTYPE svg PUBLIC "-//W3C//DTD SVG 1.1//EN" "http://www.w3.org/Graphics/SVG/1.1/DTD/svg11.dtd">
<svg width="100pt" height="100pt" viewBox="0 0 100 100" version="1.1" xmlns="http://www.w3.org/2000/svg">
<g id="#4e84abff">
<path fill="#4e84ab" opacity="1.00" d=" M 42.52 0.00 L 57.68 0.00 C 58.78 1.12 59.78 2.37 59.48 4.04 C 59.50 17.31 59.43 30.57 59.50 43.84 C 64.01 43.81 68.54 43.49 73.04 43.87 C 74.28 44.55 74.88 45.93 75.76 46.98 C 69.48 55.51 61.91 63.01 55.16 71.17 C 53.61 72.63 52.45 75.25 49.99 75.10 C 48.33 75.29 47.39 73.59 46.32 72.63 C 39.70 64.93 32.90 57.39 26.30 49.67 C 24.49 48.06 24.74 44.88 27.05 43.88 C 31.59 43.48 36.17 43.82 40.73 43.82 C 40.81 30.54 40.73 17.27 40.75 4.00 C 40.50 2.37 41.38 1.05 42.52 0.00 Z" />
<path fill="#4e84ab" opacity="1.00" d=" M 3.16 68.72 C 7.34 68.75 11.52 68.75 15.70 68.72 C 15.70 74.99 15.70 81.26 15.70 87.53 C 38.60 87.49 61.50 87.46 84.40 87.55 C 84.43 81.27 84.40 74.99 84.43 68.71 C 88.57 68.75 92.70 68.75 96.84 68.72 C 96.78 77.47 96.97 86.23 96.78 94.97 C 96.82 97.38 94.65 98.84 92.85 100.00 L 7.39 100.00 C 5.20 98.76 2.99 96.77 3.18 94.01 C 3.08 85.58 3.20 77.15 3.16 68.72 Z" />
</g>
</svg>
