<?xml version="1.0" encoding="UTF-8" ?>
<!DOCTYPE svg PUBLIC "-//W3C//DTD SVG 1.1//EN" "http://www.w3.org/Graphics/SVG/1.1/DTD/svg11.dtd">
<svg width="100pt" height="90pt" viewBox="0 0 100 90" version="1.1" xmlns="http://www.w3.org/2000/svg">
<g id="#333333ff">
<path fill="#333333" opacity="1.00" d=" M 54.25 18.88 C 53.81 14.48 59.23 10.77 63.13 12.93 C 66.27 15.04 68.78 17.92 71.59 20.43 C 79.60 27.75 87.46 35.25 95.36 42.70 C 97.03 44.23 98.64 45.84 100.00 47.66 L 100.00 52.16 C 98.17 54.89 95.57 56.93 93.24 59.20 C 85.24 66.90 77.07 74.40 68.95 81.98 C 65.98 84.63 63.16 88.60 58.62 87.67 C 56.77 86.17 54.25 84.64 54.29 81.94 C 54.17 76.86 54.31 71.77 54.28 66.69 C 41.25 66.97 27.95 68.55 15.91 73.84 C 10.43 76.35 3.91 80.37 4.13 87.25 C 2.65 87.78 1.11 87.76 0.00 86.47 L 0.00 82.75 C 0.83 72.16 4.74 61.79 11.65 53.66 C 22.01 41.05 38.07 33.86 54.26 33.20 C 54.30 28.42 54.23 23.65 54.25 18.88 Z" />
</g>
</svg>
