<?xml version="1.0" encoding="UTF-8" ?>
<!DOCTYPE svg PUBLIC "-//W3C//DTD SVG 1.1//EN" "http://www.w3.org/Graphics/SVG/1.1/DTD/svg11.dtd">
<svg width="150pt" height="150pt" viewBox="0 0 150 150" version="1.1" xmlns="http://www.w3.org/2000/svg">
<g id="#677d98ff">
<path fill="#677d98" opacity="1.00" d=" M 69.14 0.00 L 80.69 0.00 C 98.43 1.39 115.69 9.12 128.13 21.91 C 140.86 34.32 148.56 51.51 150.00 69.18 L 150.00 80.72 C 148.61 98.45 140.87 115.69 128.10 128.12 C 115.70 140.86 98.52 148.54 80.86 150.00 L 69.31 150.00 C 51.59 148.60 34.34 140.89 21.90 128.12 C 9.15 115.71 1.43 98.51 0.00 80.82 L 0.00 69.27 C 1.39 51.57 9.12 34.35 21.86 21.91 C 34.26 9.15 51.46 1.47 69.14 0.00 M 62.61 13.89 C 41.27 18.08 22.82 34.30 15.99 54.95 C 10.30 71.18 11.95 89.73 20.27 104.76 C 28.00 119.05 41.53 130.09 57.12 134.71 C 68.70 138.26 81.31 138.28 92.90 134.70 C 112.18 129.05 128.17 113.40 134.27 94.26 C 138.39 81.85 138.40 68.13 134.26 55.72 C 129.31 40.19 117.86 26.95 103.39 19.51 C 90.94 13.15 76.33 10.97 62.61 13.89 Z" />
<path fill="#677d98" opacity="1.00" d=" M 69.13 34.11 C 70.88 32.23 73.37 30.59 76.06 31.17 C 78.51 31.53 80.22 33.48 81.89 35.12 C 89.46 42.85 97.30 50.34 104.77 58.16 C 108.22 61.65 105.95 68.30 101.05 68.80 C 96.68 69.57 93.93 65.55 91.17 62.92 C 87.80 59.76 84.83 56.16 81.24 53.25 C 81.71 72.82 81.30 92.42 81.46 112.00 C 81.86 116.05 77.92 119.66 73.93 118.82 C 70.66 118.40 68.31 115.25 68.54 112.01 C 68.70 92.42 68.29 72.83 68.76 53.25 C 63.62 57.60 59.32 62.88 54.26 67.32 C 51.71 69.54 47.38 69.42 45.19 66.76 C 42.70 64.25 43.25 59.95 45.69 57.61 C 53.45 49.72 61.35 41.97 69.13 34.11 Z" />
</g>
</svg>
