<?xml version="1.0" standalone="no"?>
<!DOCTYPE svg PUBLIC "-//W3C//DTD SVG 20010904//EN"
 "http://www.w3.org/TR/2001/REC-SVG-20010904/DTD/svg10.dtd">
<svg version="1.0" xmlns="http://www.w3.org/2000/svg"
 width="150.000000pt" height="150.000000pt" viewBox="0 0 150.000000 150.000000"
 preserveAspectRatio="xMidYMid meet">
<metadata>
Created by potrace 1.11, written by Peter Selinger 2001-2013
</metadata>
<g transform="translate(0.000000,150.000000) scale(0.100000,-0.100000)"
fill="#000000" stroke="none">
<path d="M607 1389 c-77 -19 -170 -59 -230 -100 -40 -28 -107 -91 -107 -101 0
-19 63 3 102 36 53 46 163 100 243 121 228 60 495 -35 639 -225 61 -83 130
-236 96 -215 -6 4 -33 4 -61 0 -91 -13 -141 -80 -141 -191 0 -112 63 -185 160
-187 110 -1 173 75 168 204 -2 75 -30 130 -77 154 -16 9 -29 18 -29 21 0 2 9
0 20 -6 25 -13 25 -7 0 66 -67 194 -230 350 -435 414 -98 31 -244 35 -348 9z
m748 -592 c36 -55 17 -171 -31 -183 -30 -8 -43 1 -60 42 -18 43 -18 86 0 129
13 29 20 35 45 35 21 0 35 -7 46 -23z"/>
<path d="M510 1170 c-16 -30 -3 -60 26 -60 18 0 24 5 24 23 0 13 -6 29 -12 36
-10 11 -10 13 0 7 6 -4 12 -2 12 3 0 19 -39 12 -50 -9z"/>
<path d="M54 1146 c2 -14 -1 -27 -7 -30 -7 -2 0 -5 16 -5 22 -1 27 3 27 23 0
13 -7 27 -16 30 -24 9 -25 8 -20 -18z"/>
<path d="M109 1168 c-9 -34 -8 -59 3 -56 7 3 13 10 13 16 0 5 3 14 7 18 4 3 6
-2 3 -13 -3 -18 2 -21 36 -21 21 -1 39 3 39 9 0 5 5 9 11 9 5 0 8 -4 5 -9 -3
-5 6 -8 19 -8 14 0 25 5 25 11 0 6 5 4 10 -4 9 -13 11 -13 20 0 6 10 10 11 10
3 0 -8 15 -13 39 -13 22 0 42 5 44 13 4 10 6 10 6 0 2 -27 21 -11 21 17 0 31
-19 43 -21 13 0 -11 -3 -13 -6 -5 -2 6 -11 12 -19 12 -9 0 -13 -5 -9 -12 4 -7
-1 -4 -10 7 -13 17 -18 18 -37 6 -17 -11 -22 -11 -29 1 -7 11 -11 10 -20 -2
-8 -12 -12 -12 -16 -2 -4 10 -8 10 -20 1 -12 -10 -16 -10 -23 2 -8 12 -13 12
-31 1 -12 -8 -24 -10 -28 -5 -6 8 -40 17 -42 11z m254 -45 c-7 -2 -19 -2 -25
0 -7 3 -2 5 12 5 14 0 19 -2 13 -5z"/>
<path d="M436 1142 c9 -39 24 -51 24 -19 0 15 5 27 12 27 18 0 0 13 -22 17
-17 2 -19 -1 -14 -25z"/>
<path d="M577 1163 c-4 -3 -7 -17 -7 -30 0 -24 25 -32 33 -10 4 10 6 10 6 0 2
-24 21 -13 21 11 0 28 -15 42 -26 25 -5 -8 -8 -8 -13 0 -4 6 -10 8 -14 4z"/>
<path d="M647 1164 c-3 -4 -2 -16 4 -27 8 -14 8 -18 0 -13 -6 4 -11 2 -11 -3
0 -6 9 -11 20 -11 16 0 20 7 20 30 0 28 -17 40 -33 24z"/>
<path d="M699 1170 c-10 -50 -9 -60 6 -60 9 0 13 5 10 10 -3 6 -1 10 4 10 6 0
11 -4 11 -10 0 -5 5 -10 10 -10 13 0 13 47 1 54 -5 4 -12 0 -14 -6 -4 -10 -8
-9 -16 2 -6 8 -11 13 -12 10z"/>
<path d="M773 1163 c-7 -2 -13 -16 -13 -29 0 -20 5 -24 28 -24 21 0 24 2 12
10 -13 8 -12 10 3 10 9 0 17 -4 17 -9 0 -5 9 -11 20 -14 13 -3 20 0 20 10 0 8
-4 11 -10 8 -5 -3 -10 1 -10 9 0 9 5 16 10 16 6 0 10 5 10 10 0 16 -28 12 -38
-6 -8 -15 -10 -15 -15 0 -7 16 -13 18 -34 9z"/>
<path d="M870 1162 c0 -6 6 -13 13 -15 10 -4 10 -6 0 -6 -26 -2 -13 -31 13
-31 22 0 25 4 22 28 -2 19 -9 28 -25 30 -13 2 -23 -1 -23 -6z"/>
<path d="M179 1068 c-8 -15 -6 -18 14 -18 21 0 47 16 47 30 0 15 -52 4 -61
-12z"/>
<path d="M57 1033 c-16 -4 -17 -22 -15 -251 l3 -247 105 0 c125 1 165 16 198
74 37 65 21 152 -34 181 l-24 14 25 26 c64 66 43 160 -42 196 -31 13 -175 18
-216 7z m180 -95 c7 -6 13 -23 13 -39 0 -34 -32 -59 -77 -59 -31 0 -32 1 -32
43 0 69 5 76 46 71 20 -3 43 -10 50 -16z m6 -206 c10 -9 17 -29 17 -48 0 -40
-27 -62 -80 -66 l-35 -3 -2 67 c-1 55 2 68 15 70 27 6 66 -3 85 -20z"/>
<path d="M782 787 l3 -252 45 0 45 0 5 106 5 107 35 -12 c33 -10 37 -16 66
-106 l30 -95 58 0 c47 -1 56 2 50 15 -3 8 -17 51 -31 95 -33 104 -48 132 -83
154 l-30 18 75 109 76 109 -52 3 c-28 2 -57 1 -64 -2 -7 -2 -39 -50 -71 -106
l-59 -102 -3 105 -3 105 -49 0 -50 1 2 -252z"/>
<path d="M520 899 c-123 -51 -142 -270 -30 -346 27 -19 47 -23 105 -23 90 0
110 13 101 62 l-6 36 -41 -9 c-55 -13 -112 3 -127 36 l-12 25 105 0 105 0 0
53 c0 62 -28 129 -64 152 -32 21 -102 28 -136 14z m76 -77 c16 -10 34 -48 27
-56 -3 -3 -30 -6 -59 -6 -47 0 -53 2 -47 18 15 43 51 63 79 44z"/>
<path d="M1354 522 c-20 -3 -48 -44 -38 -55 13 -13 53 7 59 30 7 29 7 30 -21
25z"/>
<path d="M146 511 c-10 -15 82 -156 135 -210 133 -132 294 -202 474 -203 184
-2 343 62 474 192 66 65 66 65 37 68 -23 3 -38 -5 -75 -41 -121 -118 -271
-175 -446 -172 -146 3 -269 49 -384 145 -57 47 -135 146 -158 200 -10 24 -47
38 -57 21z"/>
<path d="M465 442 c-7 -7 -6 -82 1 -82 3 0 12 6 19 13 36 31 45 37 45 28 0
-12 39 -25 48 -16 4 3 0 10 -8 15 -12 8 -12 10 3 10 22 0 18 19 -7 34 -13 9
-19 7 -28 -8 -8 -15 -12 -16 -19 -5 -8 14 -44 21 -54 11z m35 -33 c0 -6 -4 -7
-10 -4 -5 3 -10 11 -10 16 0 6 5 7 10 4 6 -3 10 -11 10 -16z"/>
<path d="M601 418 c-15 -43 -15 -44 24 -44 34 0 35 1 32 35 -5 48 -40 54 -56
9z m33 -3 c3 -8 1 -15 -4 -15 -6 0 -10 7 -10 15 0 8 2 15 4 15 2 0 6 -7 10
-15z"/>
<path d="M670 415 c0 -19 5 -35 10 -35 6 0 10 5 10 11 0 8 4 8 13 2 6 -5 28
-9 47 -9 29 1 36 5 38 25 5 30 -10 45 -37 36 -14 -4 -21 -15 -21 -33 0 -21 -2
-24 -10 -12 -5 8 -7 24 -3 35 5 17 4 18 -11 6 -10 -9 -16 -10 -16 -2 0 6 -4
11 -10 11 -5 0 -10 -16 -10 -35z m96 -12 c-10 -10 -19 5 -10 18 6 11 8 11 12
0 2 -7 1 -15 -2 -18z"/>
<path d="M805 442 c-3 -3 -5 -19 -5 -35 0 -24 2 -27 14 -17 8 6 12 18 9 26 -3
8 1 14 11 14 9 0 16 -8 16 -19 0 -25 14 -34 40 -26 19 6 30 53 13 56 -26 4
-94 5 -98 1z m85 -32 c0 -5 -4 -10 -10 -10 -5 0 -10 5 -10 10 0 6 5 10 10 10
6 0 10 -4 10 -10z"/>
<path d="M946 440 c-6 -19 1 -54 13 -58 8 -3 11 0 7 7 -4 6 -2 11 3 11 6 0 11
-4 11 -9 0 -5 18 -9 39 -9 41 -1 58 20 40 49 -8 13 -108 21 -113 9z m76 -18
c-7 -2 -12 -11 -12 -20 0 -12 -3 -13 -11 -5 -17 17 -3 44 18 36 10 -4 12 -8 5
-11z"/>
<path d="M1109 433 c0 -11 -3 -13 -6 -5 -2 6 -12 12 -20 12 -10 0 -13 -6 -9
-16 3 -9 6 -18 6 -20 0 -2 7 -4 15 -4 8 0 15 -4 15 -10 0 -5 5 -10 10 -10 6 0
10 16 10 35 0 35 -19 51 -21 18z"/>
<path d="M1146 434 c-11 -28 -6 -42 16 -47 28 -8 47 4 22 14 -18 7 -18 8 2 8
12 1 24 -6 28 -14 6 -17 36 -21 36 -5 0 6 -4 10 -10 10 -5 0 -10 7 -10 15 0
25 38 18 42 -7 3 -22 22 -28 24 -8 1 6 2 15 3 20 2 22 21 9 21 -15 0 -20 4
-24 25 -23 20 2 25 8 25 30 0 15 -3 29 -7 29 -43 7 -141 4 -151 -4 -9 -7 -16
-7 -24 1 -17 17 -35 15 -42 -4z"/>
<path d="M1386 424 c-4 -15 -4 -29 -1 -32 11 -11 55 -9 55 2 -1 55 -42 78 -54
30z"/>
</g>
</svg>
