<?xml version="1.0" encoding="UTF-8" ?>
<!DOCTYPE svg PUBLIC "-//W3C//DTD SVG 1.1//EN" "http://www.w3.org/Graphics/SVG/1.1/DTD/svg11.dtd">
<svg width="300pt" height="300pt" viewBox="0 0 300 300" version="1.1" xmlns="http://www.w3.org/2000/svg">
<g id="#f8f8f8ff">
<path fill="#f8f8f8" opacity="1.00" d=" M 45.71 0.00 L 277.87 0.00 C 281.48 1.53 284.81 4.77 284.77 8.94 C 284.81 102.64 284.76 196.34 284.80 290.04 C 285.21 294.82 281.43 299.28 276.76 300.00 L 45.67 300.00 C 41.13 298.40 38.08 293.90 38.13 289.11 C 38.10 269.49 38.14 249.88 38.12 230.26 C 33.03 230.18 27.93 230.47 22.86 230.16 C 20.24 229.34 17.71 227.82 16.39 225.34 C 13.18 219.79 15.79 211.87 21.95 209.77 C 27.24 208.56 32.74 209.46 38.12 209.19 C 38.13 192.98 38.12 176.76 38.12 160.54 C 32.78 160.21 27.27 161.23 22.03 160.04 C 14.59 157.96 12.80 147.32 18.13 142.25 C 23.68 137.42 31.49 140.16 38.12 139.46 C 38.13 123.24 38.13 107.02 38.12 90.80 C 33.61 90.75 29.10 90.93 24.59 90.75 C 19.31 90.50 14.50 85.29 15.16 79.95 C 14.64 74.52 19.62 69.53 24.98 69.71 C 29.36 69.68 33.74 69.76 38.12 69.73 C 38.15 50.10 38.09 30.46 38.15 10.83 C 38.09 6.05 41.16 1.55 45.71 0.00 M 59.78 21.06 C 59.75 37.30 59.75 53.54 59.78 69.78 C 64.90 69.66 70.02 69.79 75.14 69.68 C 76.99 70.86 79.29 71.62 80.51 73.55 C 84.17 77.94 83.31 85.41 78.53 88.67 C 73.01 92.47 65.99 90.21 59.76 90.80 C 59.76 107.03 59.75 123.26 59.76 139.49 C 64.63 139.50 69.51 139.32 74.37 139.53 C 79.05 140.54 83.04 145.11 82.66 150.04 C 83.01 154.93 79.03 159.46 74.38 160.47 C 69.51 160.68 64.63 160.49 59.76 160.51 C 59.75 176.74 59.76 192.97 59.76 209.20 C 64.33 209.22 68.89 209.12 73.46 209.21 C 78.54 210.06 83.25 214.54 82.66 219.99 C 83.12 224.78 79.25 228.58 75.15 230.32 C 70.02 230.21 64.90 230.34 59.78 230.22 C 59.75 246.46 59.75 262.70 59.78 278.94 C 127.73 278.83 195.69 278.84 263.65 278.94 C 263.70 192.98 263.68 107.02 263.66 21.06 C 195.70 21.15 127.74 21.17 59.78 21.06 Z" />
<path fill="#f8f8f8" opacity="1.00" d=" M 126.57 106.99 C 128.49 88.68 143.62 72.89 161.83 70.06 C 168.82 69.30 176.12 69.42 182.84 71.76 C 196.84 76.45 207.97 88.81 210.84 103.35 C 213.00 114.86 210.94 127.42 203.97 137.01 C 195.02 150.20 178.19 156.91 162.61 154.66 C 143.98 151.99 128.09 135.88 126.56 116.99 C 126.54 113.66 126.54 110.33 126.57 106.99 M 163.53 91.50 C 154.46 93.85 147.51 102.67 147.61 112.07 C 147.18 119.47 151.66 126.44 157.67 130.46 C 163.52 134.21 171.44 134.93 177.70 131.79 C 186.00 128.29 191.38 118.99 190.42 110.05 C 189.32 97.53 175.73 87.74 163.53 91.50 Z" />
<path fill="#f8f8f8" opacity="1.00" d=" M 139.32 164.21 C 142.50 163.49 145.62 162.21 148.93 162.29 C 162.30 162.31 175.66 162.31 189.03 162.28 C 207.12 163.30 223.28 177.83 226.35 195.67 C 227.92 203.36 227.17 211.21 227.36 218.99 C 227.52 222.58 226.87 226.58 224.12 229.14 C 218.90 234.97 207.39 232.04 206.18 224.08 C 204.98 216.13 206.08 208.02 205.58 200.01 C 203.83 191.60 196.53 184.41 187.90 183.42 C 176.58 183.35 165.27 183.44 153.95 183.38 C 146.33 182.85 138.55 187.27 134.99 194.02 C 130.54 201.97 133.08 211.36 132.44 220.01 C 133.15 225.00 130.07 229.78 125.54 231.71 C 120.73 233.15 114.36 231.51 112.32 226.52 C 111.50 225.17 111.17 223.64 111.31 222.07 C 111.34 215.06 111.33 208.05 111.31 201.03 C 111.96 184.53 123.72 169.42 139.32 164.21 Z" />
</g>
</svg>
