<?xml version="1.0" encoding="UTF-8" ?>
<!DOCTYPE svg PUBLIC "-//W3C//DTD SVG 1.1//EN" "http://www.w3.org/Graphics/SVG/1.1/DTD/svg11.dtd">
<svg width="300pt" height="300pt" viewBox="0 0 300 300" version="1.1" xmlns="http://www.w3.org/2000/svg">
<g id="#fbfbfbff">
<path fill="#fbfbfb" opacity="1.00" d=" M 54.48 0.00 L 59.87 0.00 C 62.77 1.18 65.44 3.46 66.12 6.64 C 66.38 10.69 66.13 14.76 66.25 18.82 C 71.90 18.71 77.55 18.73 83.21 18.79 C 83.34 14.72 82.89 10.61 83.44 6.57 C 84.00 3.31 86.71 1.07 89.68 0.00 L 94.95 0.00 C 98.02 1.17 100.83 3.67 101.33 7.04 C 101.49 10.97 101.29 14.91 101.41 18.84 C 133.80 18.69 166.20 18.69 198.60 18.84 C 198.73 14.89 198.44 10.94 198.75 7.00 C 199.40 3.74 201.95 1.11 205.04 0.00 L 210.17 0.00 C 214.11 0.90 217.19 4.89 216.81 8.96 C 216.82 12.24 216.76 15.51 216.80 18.79 C 222.45 18.73 228.10 18.72 233.75 18.81 C 233.87 14.96 233.59 11.09 233.91 7.25 C 234.21 3.75 237.04 1.22 240.14 0.00 L 245.51 0.00 C 248.58 1.14 251.50 3.62 251.87 7.05 C 252.03 10.95 251.85 14.85 251.91 18.74 C 260.98 19.32 270.51 17.24 279.19 20.71 C 288.73 24.60 295.98 34.11 296.58 44.45 C 296.89 44.45 297.50 44.43 297.80 44.43 C 297.77 121.09 297.79 197.75 297.79 274.42 C 297.49 274.40 296.87 274.36 296.56 274.34 C 295.96 287.19 285.13 297.92 272.68 300.00 L 27.30 300.00 C 21.33 298.76 15.63 296.01 11.31 291.65 C 7.06 287.08 4.20 281.17 3.22 275.03 C 3.19 199.35 3.25 123.67 3.19 47.98 C 2.37 33.88 13.94 20.93 27.68 18.77 C 34.49 18.72 41.29 18.78 48.10 18.74 C 48.21 14.67 47.78 10.56 48.32 6.52 C 48.84 3.29 51.58 1.09 54.48 0.00 M 21.67 46.97 C 21.69 56.13 21.66 65.30 21.69 74.46 C 107.42 74.36 193.15 74.43 278.88 74.43 C 278.89 66.96 278.86 59.49 278.90 52.02 C 278.96 48.80 278.57 45.50 277.32 42.51 C 275.85 39.67 272.88 38.22 270.14 36.87 C 264.07 36.89 257.99 36.87 251.91 36.88 C 251.84 40.97 252.04 45.06 251.84 49.15 C 250.44 55.52 241.57 57.98 236.97 53.45 C 231.97 49.35 234.31 42.42 233.78 36.87 C 228.11 36.88 222.45 36.88 216.79 36.87 C 216.73 40.90 216.91 44.92 216.73 48.94 C 215.53 55.17 207.00 57.98 202.25 53.81 C 196.92 49.85 199.02 42.56 198.66 36.90 C 166.23 36.85 133.80 36.90 101.37 36.87 C 101.15 41.11 101.83 45.45 101.00 49.63 C 99.12 56.23 89.52 57.86 85.26 52.66 C 81.65 48.19 83.77 42.10 83.21 36.87 C 77.55 36.88 71.88 36.88 66.22 36.87 C 66.22 40.72 66.19 44.57 66.24 48.42 C 65.42 53.60 60.13 56.47 55.19 55.76 C 53.38 54.63 50.91 54.18 49.81 52.19 C 46.72 47.67 48.59 41.97 48.09 36.88 C 42.68 36.90 37.27 36.83 31.86 36.89 C 26.58 37.06 21.68 41.61 21.67 46.97 M 21.69 92.52 C 21.65 152.03 21.71 211.53 21.66 271.04 C 21.59 272.60 21.87 274.15 22.32 275.64 C 24.21 278.71 27.20 281.58 30.96 281.84 C 110.32 281.81 189.67 281.82 269.03 281.83 C 273.51 281.54 277.83 277.54 278.31 273.10 C 278.32 212.91 278.33 152.71 278.31 92.52 C 192.77 92.61 107.23 92.61 21.69 92.52 Z" />
<path fill="#fbfbfb" opacity="1.00" d=" M 135.94 118.23 C 145.19 116.26 154.76 116.17 164.02 118.21 C 183.89 121.88 201.51 134.97 211.50 152.43 C 218.52 164.96 221.90 179.69 220.29 193.97 C 218.89 212.55 209.35 230.21 194.96 241.97 C 179.83 254.55 159.32 260.08 139.89 257.25 C 124.32 255.14 109.69 247.40 98.78 236.15 C 88.69 225.35 82.01 211.43 80.05 196.78 C 78.88 184.91 79.69 172.62 84.33 161.50 C 92.74 139.63 112.87 122.56 135.94 118.23 M 143.25 135.44 C 126.10 137.85 110.54 149.16 103.03 164.77 C 97.08 176.70 96.14 190.97 100.38 203.61 C 104.91 217.45 115.50 229.08 128.72 235.13 C 140.33 240.30 153.86 241.27 165.94 237.16 C 179.89 232.73 191.71 222.09 197.68 208.74 C 202.98 197.70 203.52 184.68 200.28 172.97 C 195.69 156.53 182.44 142.90 166.20 137.69 C 158.84 134.98 150.97 135.13 143.25 135.44 Z" />
<path fill="#fbfbfb" opacity="1.00" d=" M 168.04 165.05 C 170.52 163.03 174.02 161.48 177.20 162.74 C 182.65 163.96 185.51 170.52 183.30 175.53 C 182.32 176.79 181.39 178.09 180.26 179.22 C 170.05 189.39 159.88 199.59 149.69 209.78 C 148.65 210.83 147.27 211.43 146.01 212.16 C 143.14 212.14 139.92 212.59 137.61 210.48 C 131.32 204.42 125.27 198.11 119.02 192.01 C 114.99 188.64 115.26 181.63 119.42 178.46 C 121.47 176.02 124.85 176.30 127.72 176.27 C 133.84 179.57 137.89 185.60 142.98 190.20 C 151.25 181.73 159.70 173.45 168.04 165.05 Z" />
</g>
</svg>
