<?xml version="1.0" encoding="UTF-8" ?>
<!DOCTYPE svg PUBLIC "-//W3C//DTD SVG 1.1//EN" "http://www.w3.org/Graphics/SVG/1.1/DTD/svg11.dtd">
<svg width="120pt" height="120pt" viewBox="0 0 120 120" version="1.1" xmlns="http://www.w3.org/2000/svg">
<g id="#f3f3f3ff">
<path fill="#f3f3f3" opacity="1.00" d=" M 0.00 15.61 C 1.72 9.11 8.23 3.92 15.02 4.26 C 32.35 4.30 49.69 4.29 67.03 4.26 C 68.81 4.24 70.58 4.46 72.33 4.75 C 77.20 7.13 81.88 11.00 82.43 16.77 C 82.60 32.24 82.45 47.71 82.50 63.18 C 82.39 70.66 75.25 76.50 68.01 76.41 C 50.00 76.39 31.98 76.45 13.97 76.38 C 7.37 76.37 1.19 71.42 0.00 64.88 L 0.00 15.61 M 9.42 19.52 C 9.22 31.62 9.58 43.73 9.23 55.82 C 13.80 51.28 17.95 46.35 22.43 41.74 C 27.49 38.36 31.59 44.39 34.35 47.86 C 40.30 41.62 45.55 34.75 51.28 28.31 C 53.93 25.48 56.01 21.63 59.97 20.50 C 61.42 21.14 63.25 21.36 64.15 22.85 C 67.11 26.13 69.55 29.94 72.90 32.82 C 72.47 28.21 72.70 23.58 72.68 18.96 C 72.93 16.51 70.45 14.25 68.05 14.53 C 50.03 14.54 32.01 14.52 13.98 14.54 C 11.41 14.50 9.49 17.10 9.42 19.52 M 38.97 58.07 C 37.26 60.29 33.40 60.94 31.39 58.78 C 29.37 56.87 27.51 54.81 25.46 52.94 C 21.49 57.68 17.11 62.05 12.89 66.56 C 31.24 66.56 49.59 66.57 67.94 66.56 C 70.31 66.57 72.92 64.57 72.69 62.04 C 72.66 57.59 72.60 53.14 72.71 48.69 C 68.55 43.51 64.18 38.50 59.98 33.36 C 53.12 41.72 45.94 49.80 38.97 58.07 Z" />
<path fill="#f3f3f3" opacity="1.00" d=" M 22.83 28.88 C 22.21 25.68 24.38 22.01 27.95 22.33 C 31.76 21.97 34.35 27.09 31.90 29.99 C 29.79 33.34 24.45 32.18 22.83 28.88 Z" />
<path fill="#f3f3f3" opacity="1.00" d=" M 94.35 29.45 C 97.36 27.96 101.52 30.43 101.28 33.89 C 101.24 50.28 101.28 66.67 101.26 83.06 C 101.07 90.53 94.13 96.53 86.81 96.52 C 67.84 96.62 48.87 96.53 29.91 96.57 C 27.37 96.57 23.82 95.97 23.39 92.91 C 22.39 90.36 24.18 88.13 26.10 86.68 C 46.07 86.74 66.05 86.70 86.02 86.70 C 88.68 86.93 91.46 84.68 91.44 81.97 C 91.36 65.96 91.46 49.95 91.38 33.94 C 91.17 31.95 92.79 30.39 94.35 29.45 Z" />
<path fill="#f3f3f3" opacity="1.00" d=" M 110.70 51.05 C 111.82 46.69 118.34 46.72 120.00 50.72 L 120.00 103.84 C 118.52 111.11 111.23 115.67 104.13 115.71 C 85.70 115.74 67.26 115.72 48.83 115.71 C 46.36 115.85 43.93 114.54 42.62 112.47 C 41.06 109.78 42.83 105.61 46.12 105.50 C 65.71 105.40 85.32 105.54 104.92 105.44 C 108.12 105.66 110.74 103.01 110.57 99.84 C 110.76 83.58 110.48 67.31 110.70 51.05 Z" />
</g>
</svg>
