<?xml version="1.0" encoding="UTF-8" ?>
<!DOCTYPE svg PUBLIC "-//W3C//DTD SVG 1.1//EN" "http://www.w3.org/Graphics/SVG/1.1/DTD/svg11.dtd">
<svg width="112pt" height="112pt" viewBox="0 0 112 112" version="1.1" xmlns="http://www.w3.org/2000/svg">
<g id="#f8f8f8ff">
<path fill="#f8f8f8" opacity="1.00" d=" M 52.02 0.00 L 60.05 0.00 C 73.81 1.14 87.19 7.20 96.64 17.34 C 105.60 26.56 111.25 39.06 112.00 51.91 L 112.00 60.05 C 111.29 73.90 104.82 87.29 94.72 96.76 C 85.69 105.52 73.55 110.97 61.02 112.00 L 52.08 112.00 C 38.45 111.27 25.25 105.00 15.84 95.15 C 6.55 85.85 1.10 73.11 0.00 60.08 L 0.00 52.08 C 1.11 39.01 6.60 26.24 15.94 16.93 C 25.32 7.04 38.50 1.17 52.02 0.00 M 39.13 21.10 C 36.49 22.44 34.29 25.07 34.50 28.18 C 34.50 46.74 34.50 65.29 34.50 83.84 C 34.40 87.77 37.96 91.45 41.94 91.26 C 51.30 91.28 60.67 91.27 70.04 91.26 C 74.11 91.53 77.68 87.91 77.75 83.91 C 77.73 65.29 77.74 46.67 77.74 28.06 C 77.73 24.09 74.11 20.23 70.02 20.73 C 59.74 20.98 49.34 20.25 39.13 21.10 Z" />
<path fill="#f8f8f8" opacity="1.00" d=" M 41.29 28.08 C 41.26 26.56 42.48 25.29 44.06 25.54 C 52.03 25.45 60.01 25.50 67.99 25.51 C 69.91 25.20 71.33 27.16 71.03 28.93 C 70.88 42.29 71.00 55.64 70.96 69.00 C 70.84 71.53 71.72 74.40 69.74 76.46 C 61.12 76.54 52.51 76.50 43.90 76.49 C 41.93 76.89 41.06 74.62 41.24 73.04 C 41.32 58.05 41.21 43.06 41.29 28.08 Z" />
<path fill="#f8f8f8" opacity="1.00" d=" M 55.27 80.15 C 58.04 79.41 60.99 81.94 60.57 84.79 C 60.54 88.02 56.56 90.17 53.85 88.42 C 50.36 86.70 51.17 80.38 55.27 80.15 Z" />
</g>
</svg>
