<?xml version="1.0" encoding="UTF-8" ?>
<!DOCTYPE svg PUBLIC "-//W3C//DTD SVG 1.1//EN" "http://www.w3.org/Graphics/SVG/1.1/DTD/svg11.dtd">
<svg width="112pt" height="112pt" viewBox="0 0 112 112" version="1.1" xmlns="http://www.w3.org/2000/svg">
<g id="#f8f8f8ff">
<path fill="#f8f8f8" opacity="1.00" d=" M 52.01 0.00 L 60.06 0.00 C 73.82 1.15 87.20 7.20 96.65 17.34 C 105.59 26.55 111.23 39.04 112.00 51.86 L 112.00 60.09 C 111.27 73.90 104.83 87.26 94.78 96.72 C 85.74 105.49 73.59 110.96 61.06 112.00 L 52.04 112.00 C 38.43 111.25 25.25 104.99 15.84 95.16 C 6.55 85.87 1.11 73.13 0.00 60.10 L 0.00 52.01 C 1.15 38.73 6.82 25.78 16.42 16.44 C 25.75 6.82 38.72 1.18 52.01 0.00 M 30.81 31.33 C 31.03 31.59 31.47 32.11 31.69 32.37 C 39.85 38.53 47.96 44.76 56.06 51.00 C 64.16 44.35 72.80 38.22 80.60 31.28 C 64.01 31.48 47.41 31.39 30.81 31.33 M 58.45 59.38 C 56.86 60.83 54.47 60.44 52.92 59.15 C 44.41 52.73 35.89 46.31 27.46 39.77 C 27.47 53.39 27.62 67.01 27.39 80.62 C 46.24 80.85 65.10 80.74 83.95 80.67 C 83.84 66.88 83.64 53.06 84.06 39.27 C 75.33 45.72 67.06 52.78 58.45 59.38 Z" />
</g>
</svg>
