<?xml version="1.0" encoding="UTF-8" ?>
<!DOCTYPE svg PUBLIC "-//W3C//DTD SVG 1.1//EN" "http://www.w3.org/Graphics/SVG/1.1/DTD/svg11.dtd">
<svg width="112pt" height="112pt" viewBox="0 0 112 112" version="1.1" xmlns="http://www.w3.org/2000/svg">
<g id="#f9fcfdff">
<path fill="#f9fcfd" opacity="1.00" d=" M 18.71 0.00 L 93.40 0.00 C 97.17 2.10 101.55 3.24 104.69 6.36 C 108.40 9.63 109.91 14.44 112.00 18.76 L 112.00 97.12 L 111.04 87.91 C 112.97 99.91 102.08 111.67 90.06 110.76 C 66.70 110.70 43.33 110.75 19.97 110.74 C 9.53 110.46 0.49 100.79 0.84 90.33 L 0.00 96.28 L 0.00 18.65 C 2.08 14.86 3.20 10.48 6.33 7.35 C 9.58 3.62 14.42 2.13 18.71 0.00 M 18.51 11.55 C 13.61 12.81 10.82 17.90 10.99 22.74 C 10.78 43.84 10.98 64.95 10.89 86.05 C 11.02 89.85 10.92 94.24 13.80 97.14 C 16.26 100.15 20.31 100.78 23.98 100.76 C 45.35 100.75 66.71 100.75 88.08 100.76 C 91.74 100.78 95.78 100.12 98.23 97.10 C 100.87 94.47 100.93 90.50 101.10 87.02 C 101.10 66.33 101.09 45.63 101.10 24.94 C 100.98 21.40 100.90 17.44 98.36 14.68 C 95.93 11.61 91.86 10.96 88.19 10.89 C 67.12 10.86 46.06 10.90 24.99 10.87 C 22.82 10.88 20.63 11.06 18.51 11.55 Z" />
<path fill="#f9fcfd" opacity="1.00" d=" M 36.11 32.46 C 38.64 31.89 41.53 31.70 43.78 33.21 C 51.19 37.32 58.64 41.38 66.05 45.49 C 63.38 47.93 60.83 50.50 58.33 53.12 C 51.06 46.08 43.35 39.52 36.11 32.46 Z" />
<path fill="#f9fcfd" opacity="1.00" d=" M 33.83 34.19 C 41.57 40.91 48.91 48.08 56.57 54.89 C 49.02 62.13 41.78 69.69 34.27 76.96 C 33.06 76.57 33.54 75.07 33.36 74.12 C 33.33 62.77 33.38 51.41 33.34 40.05 C 33.31 38.08 33.44 36.12 33.83 34.19 Z" />
<path fill="#f9fcfd" opacity="1.00" d=" M 68.40 46.71 C 72.42 49.42 80.13 51.22 78.55 57.58 C 77.02 60.96 73.12 62.11 70.22 64.01 C 66.91 60.93 63.64 57.82 60.23 54.85 C 62.99 52.17 65.69 49.44 68.40 46.71 Z" />
<path fill="#f9fcfd" opacity="1.00" d=" M 36.39 78.75 C 43.66 71.29 51.15 64.03 58.48 56.62 C 61.52 59.58 64.64 62.47 67.93 65.16 C 59.60 69.78 51.22 74.31 42.93 78.97 C 40.96 80.23 38.51 79.59 36.33 79.53 C 36.34 79.34 36.37 78.95 36.39 78.75 Z" />
</g>
</svg>
