<?xml version="1.0" encoding="UTF-8" ?>
<!DOCTYPE svg PUBLIC "-//W3C//DTD SVG 1.1//EN" "http://www.w3.org/Graphics/SVG/1.1/DTD/svg11.dtd">
<svg width="112pt" height="112pt" viewBox="0 0 112 112" version="1.1" xmlns="http://www.w3.org/2000/svg">
<g id="#f8f8f8ff">
<path fill="#f8f8f8" opacity="1.00" d=" M 36.87 0.00 L 75.51 0.00 C 84.48 0.40 94.16 1.56 101.17 7.72 C 108.29 13.51 111.71 22.76 112.00 31.74 L 112.00 79.83 C 111.82 89.16 108.27 98.83 100.80 104.75 C 94.00 110.40 84.87 111.99 76.27 112.00 L 36.83 112.00 C 25.68 112.26 13.36 109.05 6.68 99.43 C -0.69 89.64 0.65 76.80 0.00 65.29 L 0.00 46.91 C 0.62 34.58 -0.66 20.32 8.51 10.58 C 15.40 2.29 26.67 0.29 36.87 0.00 M 40.32 10.42 C 32.25 10.52 22.94 10.67 16.90 16.87 C 10.78 22.86 10.86 32.05 10.52 40.01 C 10.61 52.70 10.22 65.40 10.77 78.08 C 11.15 84.13 12.18 90.81 16.77 95.20 C 20.82 99.70 27.12 101.41 32.99 101.48 C 48.99 101.97 64.99 102.01 80.98 101.43 C 88.03 101.27 95.19 97.79 98.72 91.51 C 102.29 85.30 101.59 77.90 102.04 71.02 C 101.86 56.99 102.56 42.92 101.38 28.91 C 100.64 23.65 98.21 18.41 93.86 15.18 C 89.09 11.54 82.85 10.74 77.02 10.52 C 64.79 10.27 52.55 10.39 40.32 10.42 Z" />
<path fill="#f8f8f8" opacity="1.00" d=" M 84.32 19.55 C 88.77 18.06 93.92 22.45 92.94 27.12 C 92.67 31.99 86.20 34.86 82.35 31.86 C 77.57 28.96 78.94 20.86 84.32 19.55 Z" />
<path fill="#f8f8f8" opacity="1.00" d=" M 47.38 28.60 C 54.17 26.56 61.77 26.78 68.24 29.80 C 76.76 33.56 83.15 41.73 84.70 50.91 C 87.96 65.84 76.91 81.94 61.86 84.43 C 45.86 88.13 28.56 75.38 27.60 58.94 C 25.92 45.76 34.81 32.54 47.38 28.60 M 52.20 38.09 C 42.95 39.89 36.19 49.81 38.04 59.09 C 39.38 69.49 51.08 77.22 61.15 73.97 C 68.78 72.05 74.32 64.86 74.94 57.13 C 75.76 45.42 63.73 34.86 52.20 38.09 Z" />
</g>
</svg>
