<?xml version="1.0" encoding="UTF-8" ?>
<!DOCTYPE svg PUBLIC "-//W3C//DTD SVG 1.1//EN" "http://www.w3.org/Graphics/SVG/1.1/DTD/svg11.dtd">
<svg width="50pt" height="50pt" viewBox="0 0 50 50" version="1.1" xmlns="http://www.w3.org/2000/svg">
<g id="#557384fe">
<path fill="#557384" opacity="1.00" d=" M 23.32 0.00 L 26.20 0.00 C 35.12 0.81 40.06 12.41 34.40 19.34 C 29.76 26.11 18.53 25.66 14.44 18.56 C 9.50 11.46 14.77 0.71 23.32 0.00 M 21.44 3.59 C 15.16 5.74 13.52 15.02 18.91 19.03 C 23.99 23.93 33.43 19.90 33.71 12.95 C 34.62 6.55 27.40 1.05 21.44 3.59 Z" />
<path fill="#557384" opacity="1.00" d=" M 6.52 29.46 C 8.06 26.25 11.44 24.03 15.03 24.12 C 18.13 25.06 20.57 27.71 23.93 27.94 C 27.87 28.58 31.07 25.89 34.36 24.25 C 37.85 23.72 41.43 25.78 43.12 28.82 C 45.58 33.10 46.17 38.23 45.79 43.08 C 45.53 46.55 42.56 49.07 39.39 50.00 L 10.96 50.00 C 7.58 49.31 4.57 46.64 4.19 43.10 C 3.76 38.48 4.44 33.64 6.52 29.46 M 7.19 42.05 C 7.09 45.09 10.06 47.26 12.92 47.10 C 20.28 47.26 27.65 47.10 35.02 47.17 C 37.66 47.24 41.00 46.98 42.31 44.28 C 43.40 41.23 42.76 37.88 42.20 34.78 C 41.62 31.12 39.19 27.67 35.39 26.92 C 32.37 29.16 28.85 31.09 24.99 31.05 C 21.14 31.07 17.63 29.16 14.63 26.93 C 7.93 28.36 7.00 36.40 7.19 42.05 Z" />
</g>
</svg>
