<?xml version="1.0" encoding="UTF-8" ?>
<!DOCTYPE svg PUBLIC "-//W3C//DTD SVG 1.1//EN" "http://www.w3.org/Graphics/SVG/1.1/DTD/svg11.dtd">
<svg width="112pt" height="112pt" viewBox="0 0 112 112" version="1.1" xmlns="http://www.w3.org/2000/svg">
<g id="#f7f9fcff">
<path fill="#f7f9fc" opacity="1.00" d=" M 33.61 0.00 L 73.94 0.00 C 82.01 1.80 91.00 -1.84 98.62 2.12 C 105.02 4.79 109.57 10.80 111.02 17.52 L 111.45 16.47 L 112.00 25.93 L 112.00 92.93 C 109.71 98.51 107.28 104.56 101.85 107.82 C 99.20 110.06 95.28 109.54 92.79 112.00 L 18.79 112.00 C 13.28 109.72 7.22 107.39 3.98 102.01 C -0.19 96.33 0.26 89.10 0.00 82.41 L 0.00 34.32 L 0.41 26.30 C -1.52 16.42 4.16 5.50 13.62 1.89 C 19.81 -1.28 27.03 1.39 33.61 0.00 M 17.40 11.59 C 12.75 13.27 10.46 18.34 10.66 23.04 C 10.64 44.70 10.68 66.35 10.65 88.01 C 10.67 91.56 11.25 95.46 14.04 97.95 C 16.86 100.88 21.16 100.95 24.94 101.07 C 45.29 101.08 65.64 101.06 86.00 101.08 C 90.04 100.98 94.70 101.02 97.72 97.87 C 100.75 95.16 100.98 90.86 101.07 87.08 C 101.08 66.36 101.07 45.63 101.08 24.91 C 100.93 21.35 100.96 17.32 98.38 14.52 C 95.96 11.44 91.84 10.66 88.13 10.66 C 66.75 10.65 45.36 10.67 23.97 10.65 C 21.76 10.69 19.50 10.84 17.40 11.59 Z" />
<path fill="#f7f9fc" opacity="1.00" d=" M 43.30 39.08 C 48.46 35.61 55.24 36.35 60.99 37.60 C 63.46 43.66 59.72 50.56 62.81 56.48 C 68.62 52.24 71.06 45.18 74.29 39.07 C 77.05 38.05 80.14 38.81 83.03 38.58 C 85.58 38.82 88.58 37.81 90.64 39.77 C 88.67 47.22 81.94 52.15 78.96 58.98 C 80.13 62.30 83.80 64.26 85.98 67.02 C 87.73 69.23 90.77 71.71 89.89 74.82 C 87.69 76.61 84.67 76.20 82.03 76.27 C 79.04 76.21 75.76 76.74 73.19 74.83 C 70.01 72.48 67.81 69.07 64.68 66.64 C 61.19 68.47 62.35 72.69 60.88 75.70 C 55.62 76.09 49.94 76.39 45.16 73.73 C 36.39 69.39 31.51 60.39 26.80 52.27 C 24.82 47.96 21.91 43.95 21.04 39.22 C 25.60 38.11 30.41 38.55 35.04 38.81 C 38.67 44.77 40.58 52.56 46.84 56.41 C 48.76 51.99 48.64 46.98 47.68 42.34 C 47.10 40.40 44.69 40.19 43.30 39.08 Z" />
</g>
</svg>
