<?xml version="1.0" encoding="UTF-8" ?>
<!DOCTYPE svg PUBLIC "-//W3C//DTD SVG 1.1//EN" "http://www.w3.org/Graphics/SVG/1.1/DTD/svg11.dtd">
<svg width="100pt" height="78pt" viewBox="0 0 100 78" version="1.1" xmlns="http://www.w3.org/2000/svg">
<g id="#fbfbfbff">
<path fill="#fbfbfb" opacity="1.00" d=" M 0.00 9.10 C 1.17 4.72 5.34 1.06 10.02 1.37 C 36.69 1.39 63.37 1.39 90.05 1.37 C 94.55 1.02 98.72 4.37 100.00 8.58 L 100.00 13.12 C 98.88 17.06 95.25 20.18 91.06 20.11 C 63.70 20.15 36.34 20.16 8.98 20.11 C 4.60 20.14 1.06 16.64 0.00 12.57 L 0.00 9.10 Z" />
<path fill="#fbfbfb" opacity="1.00" d=" M 0.00 37.18 C 1.13 32.71 5.30 29.44 9.95 29.60 C 36.66 29.54 63.39 29.54 90.11 29.60 C 94.54 29.45 98.71 32.29 100.00 36.57 L 100.00 41.32 C 98.66 46.62 93.07 48.98 88.01 48.27 C 61.68 48.19 35.35 48.32 9.02 48.21 C 4.62 48.32 1.06 44.84 0.00 40.75 L 0.00 37.18 Z" />
<path fill="#fbfbfb" opacity="1.00" d=" M 0.00 65.45 C 1.07 60.98 5.20 57.54 9.88 57.81 C 35.26 57.79 60.65 57.83 86.03 57.79 C 89.10 57.83 92.36 57.45 95.19 58.90 C 97.58 60.05 99.15 62.38 100.00 64.82 L 100.00 69.32 C 98.76 73.53 94.61 77.14 90.07 76.64 C 63.35 76.60 36.63 76.61 9.91 76.64 C 5.23 77.11 1.26 73.18 0.00 68.94 L 0.00 65.45 Z" />
</g>
</svg>
