<?xml version="1.0" encoding="UTF-8" ?>
<!DOCTYPE svg PUBLIC "-//W3C//DTD SVG 1.1//EN" "http://www.w3.org/Graphics/SVG/1.1/DTD/svg11.dtd">
<svg width="100pt" height="100pt" viewBox="0 0 100 100" version="1.1" xmlns="http://www.w3.org/2000/svg">
<g id="#fbfbfbff">
<path fill="#fbfbfb" opacity="1.00" d=" M 46.91 0.00 L 53.09 0.00 C 65.15 0.86 76.91 5.96 85.44 14.59 C 93.88 23.00 99.36 34.47 100.00 46.42 L 100.00 53.48 C 99.06 77.55 78.07 98.69 54.04 100.00 L 46.72 100.00 C 31.07 99.27 16.23 90.25 7.88 77.07 C 3.24 70.02 0.76 61.72 0.00 53.36 L 0.00 46.71 C 0.82 37.86 3.59 29.08 8.76 21.80 C 17.24 9.15 31.76 1.03 46.91 0.00 M 44.51 7.74 C 32.40 9.26 21.13 16.33 14.48 26.55 C 9.95 33.18 7.71 41.15 7.24 49.11 C 7.18 60.81 11.80 72.59 20.34 80.70 C 28.62 88.89 40.40 93.34 52.02 92.83 C 63.30 92.30 74.27 87.12 81.80 78.70 C 91.18 68.42 95.15 53.37 91.58 39.86 C 86.93 19.33 65.36 4.42 44.51 7.74 Z" />
<path fill="#fbfbfb" opacity="1.00" d=" M 28.86 33.94 C 27.21 30.78 30.77 27.39 33.90 28.84 C 39.36 34.17 44.79 39.53 50.06 45.05 C 55.35 39.60 60.74 34.25 66.15 28.92 C 69.31 27.25 72.83 30.71 71.35 33.93 C 65.99 39.35 60.67 44.83 55.12 50.05 C 60.57 55.37 65.96 60.75 71.28 66.20 C 72.90 69.41 69.33 72.84 66.16 71.25 C 60.74 65.93 55.36 60.57 50.06 55.13 C 45.23 60.29 40.09 65.15 35.15 70.21 C 33.25 72.89 28.18 71.38 28.53 67.93 C 28.27 66.42 29.58 65.46 30.48 64.52 C 35.36 59.72 40.11 54.79 45.06 50.05 C 39.53 44.82 34.20 39.37 28.86 33.94 Z" />
</g>
</svg>
