<?xml version="1.0" encoding="UTF-8" ?>
<!DOCTYPE svg PUBLIC "-//W3C//DTD SVG 1.1//EN" "http://www.w3.org/Graphics/SVG/1.1/DTD/svg11.dtd">
<svg width="150pt" height="150pt" viewBox="0 0 150 150" version="1.1" xmlns="http://www.w3.org/2000/svg">
<g id="#fcfbfbff">
<path fill="#fcfbfb" opacity="1.00" d=" M 9.45 4.47 C 14.13 -0.88 23.13 -1.21 28.33 3.57 C 43.92 19.07 59.40 34.77 75.03 50.16 C 90.57 34.71 106.08 19.12 121.61 3.62 C 125.14 0.28 130.40 -0.46 134.97 0.78 C 139.43 2.31 142.14 6.37 145.49 9.41 C 147.77 11.41 149.28 14.13 150.00 17.06 L 150.00 22.04 C 149.43 24.71 148.15 27.22 146.19 29.13 C 130.75 44.47 115.49 59.98 99.97 75.22 C 115.30 90.49 130.57 105.83 145.89 121.11 C 147.95 123.07 149.33 125.65 150.00 128.41 L 150.00 133.41 C 149.33 136.47 147.69 139.27 145.35 141.35 C 141.88 144.54 138.98 148.85 134.12 150.00 L 127.54 150.00 C 124.95 149.52 122.67 148.07 120.87 146.19 C 105.60 130.85 90.20 115.63 75.00 100.22 C 59.81 115.63 44.41 130.84 29.14 146.18 C 27.37 148.04 25.09 149.45 22.55 150.00 L 15.93 150.00 C 11.06 148.91 8.16 144.58 4.70 141.39 C 2.36 139.29 0.59 136.50 0.00 133.39 L 0.00 128.58 C 0.56 125.76 2.01 123.14 4.08 121.14 C 19.41 105.85 34.69 90.50 50.03 75.22 C 36.18 61.65 22.58 47.81 8.82 34.14 C 5.39 30.53 0.93 27.35 0.00 22.11 L 0.00 17.23 C 0.88 11.62 5.89 8.37 9.45 4.47 Z" />
</g>
</svg>
