<?xml version="1.0" encoding="UTF-8" ?>
<!DOCTYPE svg PUBLIC "-//W3C//DTD SVG 1.1//EN" "http://www.w3.org/Graphics/SVG/1.1/DTD/svg11.dtd">
<svg width="50pt" height="50pt" viewBox="0 0 50 50" version="1.1" xmlns="http://www.w3.org/2000/svg">
<g id="#f6f6f6ff">
<path fill="#f6f6f6" opacity="1.00" d=" M 0.00 23.35 C 0.66 10.64 12.21 -0.35 25.01 0.03 C 37.62 -0.37 49.25 10.33 50.00 22.90 L 50.00 26.83 C 49.49 38.83 39.04 49.32 27.07 50.00 L 23.33 50.00 C 11.21 49.53 0.79 38.97 0.00 26.95 L 0.00 23.35 M 20.48 5.62 C 12.09 7.49 5.43 15.32 5.15 23.94 C 4.63 30.97 8.30 37.99 14.19 41.78 C 19.34 45.16 26.09 45.90 31.87 43.78 C 38.23 41.53 43.23 35.78 44.56 29.16 C 46.22 21.97 43.29 14.05 37.53 9.50 C 32.86 5.62 26.37 4.29 20.48 5.62 Z" />
<path fill="#f6f6f6" opacity="1.00" d=" M 21.11 13.11 C 28.42 10.36 37.28 16.19 37.52 24.01 C 38.41 31.05 32.11 37.95 25.00 37.52 C 18.60 37.83 12.87 32.27 12.48 25.98 C 11.99 20.38 15.76 14.81 21.11 13.11 Z" />
</g>
</svg>
