<?xml version="1.0" encoding="UTF-8" ?>
<!DOCTYPE svg PUBLIC "-//W3C//DTD SVG 1.1//EN" "http://www.w3.org/Graphics/SVG/1.1/DTD/svg11.dtd">
<svg width="120pt" height="120pt" viewBox="0 0 120 120" version="1.1" xmlns="http://www.w3.org/2000/svg">
<g id="#fdfdfdff">
<path fill="#fdfdfd" opacity="1.00" d=" M 55.82 0.00 L 64.13 0.00 C 77.65 1.12 90.86 6.75 100.68 16.19 C 111.92 26.62 119.05 41.47 120.00 56.78 L 120.00 72.96 C 119.12 79.42 114.10 85.19 107.79 86.91 C 103.77 88.17 99.50 87.64 95.36 87.74 C 95.47 91.12 93.59 94.88 89.86 95.18 C 73.23 95.53 56.56 89.00 44.64 77.36 C 33.61 66.79 26.39 52.15 25.32 36.86 C 25.02 33.47 24.25 29.54 26.67 26.70 C 29.93 24.20 34.24 25.26 38.03 25.04 C 41.43 25.23 45.39 24.29 48.24 26.66 C 51.00 29.68 49.69 34.09 50.65 37.75 C 51.02 41.06 53.38 44.42 51.90 47.73 C 49.72 50.85 47.37 53.86 44.96 56.81 C 49.32 64.43 55.58 70.81 63.26 75.12 C 67.24 72.85 70.26 68.41 75.02 67.87 C 79.96 68.99 84.87 70.38 89.98 70.40 C 93.62 70.43 95.43 74.26 95.30 77.46 C 99.20 77.20 103.71 78.58 107.05 75.93 C 108.92 74.66 109.77 72.34 109.99 70.18 C 110.33 62.92 109.93 55.59 108.22 48.50 C 103.67 32.67 91.66 18.91 76.13 13.12 C 69.75 10.55 62.66 9.96 55.84 10.50 C 39.86 11.56 24.93 21.32 16.99 35.14 C 11.88 43.82 9.60 54.06 10.45 64.08 C 11.35 79.90 20.97 94.59 34.37 102.77 C 50.35 112.77 72.06 112.22 87.63 101.68 C 91.09 99.50 93.99 96.61 96.94 93.82 C 98.07 92.59 99.95 92.68 101.10 93.83 C 102.98 95.51 105.46 97.30 105.15 100.17 C 94.63 111.50 79.95 119.31 64.36 120.00 L 55.86 120.00 C 27.19 118.17 1.82 93.22 0.00 64.41 L 0.00 55.74 C 1.22 41.99 6.93 28.57 16.59 18.64 C 26.73 7.78 41.08 1.24 55.82 0.00 Z" />
</g>
</svg>
