<?xml version="1.0" encoding="UTF-8" ?>
<!DOCTYPE svg PUBLIC "-//W3C//DTD SVG 1.1//EN" "http://www.w3.org/Graphics/SVG/1.1/DTD/svg11.dtd">
<svg width="120pt" height="120pt" viewBox="0 0 120 120" version="1.1" xmlns="http://www.w3.org/2000/svg">
<g id="#000000ff">
<path fill="#000000" opacity="1.00" d=" M 56.66 0.00 L 63.21 0.00 C 76.30 1.02 89.16 6.05 99.00 14.84 C 111.31 25.48 118.99 41.22 120.00 57.44 L 120.00 72.66 C 119.03 78.67 114.84 84.14 109.13 86.34 C 104.76 88.03 99.99 87.54 95.42 87.59 C 94.97 90.72 93.84 94.62 90.08 94.94 C 74.10 95.61 58.08 89.37 46.26 78.66 C 33.94 67.63 26.05 51.64 25.28 35.08 C 25.17 32.30 24.74 28.99 26.88 26.81 C 28.79 25.03 31.59 25.27 33.99 25.15 C 37.86 25.21 41.78 24.90 45.62 25.50 C 47.87 25.84 49.48 27.89 49.68 30.09 C 50.18 33.88 50.31 37.74 51.43 41.43 C 51.78 43.46 52.95 45.72 51.68 47.65 C 49.67 50.91 47.15 53.82 44.80 56.83 C 49.24 64.22 55.10 71.17 63.06 74.85 C 67.17 73.67 69.72 69.28 73.93 68.10 C 76.78 68.01 79.46 69.19 82.23 69.66 C 85.44 70.35 88.80 70.09 91.95 71.05 C 94.55 72.12 94.72 75.34 95.43 77.68 C 99.47 77.43 104.28 78.67 107.59 75.68 C 110.89 72.78 110.03 67.95 110.17 64.04 C 110.24 54.28 108.08 44.43 103.02 36.01 C 94.65 21.52 79.10 10.58 62.05 10.24 C 49.26 9.58 36.36 14.20 26.88 22.80 C 15.55 32.74 9.20 47.99 10.28 63.05 C 10.99 85.64 29.48 106.00 51.74 109.37 C 67.17 112.05 83.81 107.07 94.91 95.94 C 96.48 94.39 98.90 91.74 101.05 94.01 C 102.71 95.69 106.30 97.89 104.43 100.55 C 94.05 112.00 79.05 119.24 63.59 120.00 L 56.48 120.00 C 27.29 118.26 1.52 92.79 0.00 63.44 L 0.00 56.76 C 1.14 43.17 6.42 29.79 15.77 19.73 C 26.15 8.12 41.21 1.23 56.66 0.00 Z" />
</g>
</svg>
