<?xml version="1.0" encoding="UTF-8" ?>
<!DOCTYPE svg PUBLIC "-//W3C//DTD SVG 1.1//EN" "http://www.w3.org/Graphics/SVG/1.1/DTD/svg11.dtd">
<svg width="100pt" height="100pt" viewBox="0 0 100 100" version="1.1" xmlns="http://www.w3.org/2000/svg">
<g id="#fbfbfbff">
<path fill="#fbfbfb" opacity="1.00" d=" M 47.04 0.00 L 52.98 0.00 C 64.83 0.81 76.42 5.68 84.92 14.04 C 93.78 22.59 99.51 34.53 100.00 46.89 L 100.00 53.15 C 99.29 77.50 77.95 99.00 53.63 100.00 L 47.09 100.00 C 32.26 99.47 18.08 91.46 9.47 79.45 C 3.83 71.85 0.76 62.54 0.00 53.15 L 0.00 46.79 C 0.87 36.22 4.83 25.86 11.76 17.78 C 20.45 7.34 33.52 0.91 47.04 0.00 M 41.61 7.71 C 30.51 9.93 20.39 16.70 14.16 26.16 C 7.61 35.74 5.39 48.06 7.89 59.38 C 10.33 70.60 17.48 80.71 27.26 86.74 C 37.28 93.15 50.06 94.96 61.50 91.76 C 72.89 88.71 82.80 80.68 88.28 70.26 C 93.80 60.04 94.84 47.52 91.12 36.52 C 88.16 27.60 82.20 19.68 74.41 14.42 C 64.99 7.81 52.86 5.52 41.61 7.71 Z" />
<path fill="#fbfbfb" opacity="1.00" d=" M 46.51 27.94 C 46.46 26.07 47.94 24.10 49.91 24.13 C 52.04 23.91 53.91 25.97 53.63 28.06 C 53.59 34.19 53.68 40.33 53.55 46.46 C 60.02 46.64 66.51 46.30 72.97 46.62 C 76.66 46.90 77.20 52.47 73.65 53.47 C 66.97 53.83 60.26 53.49 53.57 53.64 C 53.64 60.03 53.64 66.42 53.60 72.80 C 53.69 75.64 49.57 77.20 47.73 75.09 C 46.55 74.10 46.43 72.47 46.48 71.05 C 46.55 65.25 46.42 59.45 46.57 53.65 C 39.88 53.47 33.17 53.86 26.48 53.46 C 23.07 52.44 23.45 47.03 27.03 46.67 C 33.54 46.23 40.08 46.69 46.60 46.44 C 46.42 40.27 46.51 34.10 46.51 27.94 Z" />
</g>
</svg>
