<?xml version="1.0" encoding="UTF-8" standalone="no"?>
<svg
   xmlns:dc="http://purl.org/dc/elements/1.1/"
   xmlns:cc="http://creativecommons.org/ns#"
   xmlns:rdf="http://www.w3.org/1999/02/22-rdf-syntax-ns#"
   xmlns:svg="http://www.w3.org/2000/svg"
   xmlns="http://www.w3.org/2000/svg"
   xmlns:sodipodi="http://sodipodi.sourceforge.net/DTD/sodipodi-0.dtd"
   xmlns:inkscape="http://www.inkscape.org/namespaces/inkscape"
   width="60pt"
   height="60pt"
   viewBox="0 0 60.000001 60.000001"
   version="1.1"
   id="svg7"
   sodipodi:docname="arrow_icon_position.svg"
   inkscape:version="0.92.4 (5da689c313, 2019-01-14)">
  <metadata
     id="metadata13">
    <rdf:RDF>
      <cc:Work
         rdf:about="">
        <dc:format>image/svg+xml</dc:format>
        <dc:type
           rdf:resource="http://purl.org/dc/dcmitype/StillImage" />
        <dc:title></dc:title>
      </cc:Work>
    </rdf:RDF>
  </metadata>
  <defs
     id="defs11" />
  <sodipodi:namedview
     pagecolor="#ffffff"
     bordercolor="#666666"
     borderopacity="1"
     objecttolerance="10"
     gridtolerance="10"
     guidetolerance="10"
     inkscape:pageopacity="0"
     inkscape:pageshadow="2"
     inkscape:window-width="1680"
     inkscape:window-height="985"
     id="namedview9"
     showgrid="false"
     fit-margin-top="0"
     fit-margin-left="0"
     fit-margin-right="0"
     fit-margin-bottom="0"
     inkscape:zoom="7.0018406"
     inkscape:cx="78.852584"
     inkscape:cy="31.661908"
     inkscape:window-x="0"
     inkscape:window-y="36"
     inkscape:window-maximized="1"
     inkscape:current-layer="svg7" />
  <g
     id="#626262ff"
     transform="matrix(0.21051211,0,0,0.21029513,-1.6046979,0.05847672)">
    <path
       d="m 103.41,8.68 c 10.79,-3.86 22.09,-6.07 33.45,-7.45 8.76,-0.36 17.54,-0.32 26.3,-0.01 6.48,0.79 12.9,2.09 19.33,3.27 6.44,1.6 12.69,3.87 19.01,5.88 5.04,2.53 10.52,4.15 15.35,7.11 1.82,1.16 3.7,2.22 5.67,3.11 5.53,4.22 11.43,7.94 17.11,11.95 1.95,2.03 4.06,3.91 6.38,5.52 5.13,3.82 8.83,9.08 12.74,14.05 13.08,15.07 22.18,33.29 27.73,52.39 1.35,3.99 1.63,8.24 3.12,12.18 0.14,2.44 0.34,4.89 1.1,7.22 -0.05,0.44 -0.14,1.31 -0.19,1.74 2.61,12.1 1.4,24.54 0.07,36.71 -0.59,1.97 -0.85,4.02 -1.04,6.07 -1.36,4.18 -1.82,8.6 -3.33,12.75 0.12,0.27 0.35,0.83 0.46,1.1 -3.55,7.16 -5.32,15.1 -9.24,22.11 -7.92,17.21 -20.34,31.83 -33.8,44.95 -4.56,3.15 -8.72,6.84 -13.35,9.89 -3.01,2.23 -6.59,3.73 -9.16,6.52 -0.33,-0.16 -0.98,-0.47 -1.31,-0.62 l 0.16,1.29 c -2.18,0.94 -4.35,1.9 -6.47,2.94 -2.62,1.37 -5.25,2.73 -8.02,3.78 -2.98,1.19 -5.96,2.37 -8.98,3.46 -13.32,4.84 -27.42,6.6 -41.41,8.31 -5.18,0.22 -10.39,0.21 -15.55,-0.32 -8.16,-1.83 -16.6,-2.14 -24.64,-4.52 -5.92,-1.5 -11.67,-3.55 -17.44,-5.55 -3.15,-1.02 -6.09,-2.55 -9.06,-4.01 -1.95,-1.06 -3.92,-2.09 -5.87,-3.14 -1.33,-0.71 -2.69,-1.34 -4.07,-1.92 -5.7,-4.32 -11.94,-7.88 -17.48,-12.44 -4.29,-2.62 -7.18,-6.85 -11.19,-9.83 -4.08,-4.92 -8.41,-9.63 -12.72,-14.35 -2.75,-4.5 -6.27,-8.49 -8.76,-13.16 C 18.85,199.95 12.83,182.4 9.46,164.43 9.28,158.59 7.72,152.86 7.99,146.99 7.65,136.47 8.58,125.95 10.44,115.61 15.06,93.98 24.29,73.36 37.69,55.73 c 2.45,-2.34 4.44,-5.08 6.6,-7.67 3.61,-3.97 7.51,-7.67 11.17,-11.58 2.01,-1.67 4.26,-3.06 5.98,-5.06 5.89,-3.74 11.58,-7.82 17.41,-11.65 7.53,-4.98 16.06,-8.19 24.56,-11.09 m 16.33,23.13 C 105.55,35.82 91.66,41.92 80.21,51.37 69.05,59.72 59.33,70.1 52.11,82.04 c -13.27,20.5 -18.75,45.55 -16.86,69.76 2.05,30.39 17.27,59.55 40.82,78.85 2.55,2.24 5.38,4.13 8.12,6.14 8.27,6.56 18.13,10.76 28,14.3 5.48,1.81 11,3.64 16.75,4.32 4.4,0.58 8.77,1.38 13.17,1.86 5.64,-0.47 11.3,0.04 16.93,-0.12 4.91,-1.26 10.06,-0.88 14.96,-2.27 4.91,-1.03 9.73,-2.43 14.48,-4.03 11,-3.97 21.56,-9.26 30.69,-16.62 26.44,-19.64 43.93,-51.24 45.29,-84.26 0.8,-4.68 0.9,-9.48 0.08,-14.17 C 263.59,111.14 253.52,87.16 237.73,68.31 229.9,59.4 220.77,51.72 210.96,45.1 198.31,37.42 184.22,32.16 169.65,29.56 c -3.09,-0.82 -6.3,-0.52 -9.44,-0.93 -5.32,-1.09 -10.82,-1.31 -16.22,-0.76 -8.07,1.36 -16.39,1.4 -24.25,3.94 z"
       id="path2"
       inkscape:connector-curvature="0"
       style="opacity:1;fill:#626262" />
    <path
       d="m 141.06,55.99 c 3.54,-2.94 8.72,-3.94 12.96,-1.93 5.92,2.7 9.91,8.02 14.55,12.35 5.6,5.76 11.56,11.17 16.87,17.2 14.25,13.42 27.75,27.62 41.73,41.33 2.51,2.54 5.24,4.89 7.29,7.84 0.37,0.25 1.13,0.75 1.5,1.01 2.73,5.25 3.72,12.72 -1.01,17.16 -25.63,25.71 -51.44,51.26 -77.05,77 -2.01,2.01 -4.79,2.87 -7.47,3.56 -0.7,0.04 -2.1,0.13 -2.8,0.17 -2.81,-1.19 -5.96,-1.96 -8.23,-4.1 -3.01,-3.66 -7.6,-5.74 -9.7,-10.17 -0.56,-2.12 -1.72,-4.14 -1.69,-6.38 1.17,-5.01 3.99,-9.69 8.24,-12.66 4.79,-4.59 9.87,-8.89 14.44,-13.7 4.11,-5.16 8.94,-9.71 14.11,-13.8 3.87,-3.51 7.58,-7.19 11.41,-10.73 -3.76,0.22 -7.51,1.29 -11.28,0.62 -2.94,-0.55 -5.96,-0.49 -8.89,0.06 -4.15,0.73 -8.25,-1.08 -12.39,-0.26 -5.2,1.28 -10.45,-1.05 -15.66,0.2 -4.16,0.84 -8.3,-0.99 -12.46,-0.23 -2.93,0.55 -5.92,0.57 -8.85,0.01 -4.21,-0.79 -8.38,1.06 -12.58,0.22 -2.5,-0.43 -5.06,-0.56 -7.56,-0.13 -5.23,1.09 -10.49,-1.14 -15.73,0.11 -1.23,-0.4 -2.47,-0.79 -3.71,-1.15 l -0.4,-0.99 c -0.29,0.09 -0.86,0.26 -1.15,0.34 -2.04,-2.86 -5.29,-5.21 -5.61,-8.98 -0.38,-4.65 -0.17,-9.33 -0.14,-13.99 -0.07,-4.47 3.39,-7.86 6.54,-10.55 0.52,-0.26 1.57,-0.77 2.09,-1.03 4.2,-0.31 8.41,-0.36 12.62,-0.32 31.68,0.12 63.36,-0.2 95.02,0.16 -5.98,-5.12 -11.18,-11.06 -17.24,-16.09 -1.29,-1.52 -2.72,-2.9 -4.3,-4.11 l 0.16,-0.75 -0.75,0.21 C 146.95,95.7 138.75,89.1 131.71,81.36 c -1.89,-2 -2.59,-4.72 -3.73,-7.15 0.32,-8.1 6.99,-13.82 13.08,-18.22 z"
       id="path4"
       inkscape:connector-curvature="0"
       style="opacity:1;fill:#626262" />
  </g>
</svg>
