<?xml version="1.0" encoding="UTF-8" standalone="no"?>
<svg
   xmlns:dc="http://purl.org/dc/elements/1.1/"
   xmlns:cc="http://creativecommons.org/ns#"
   xmlns:rdf="http://www.w3.org/1999/02/22-rdf-syntax-ns#"
   xmlns:svg="http://www.w3.org/2000/svg"
   xmlns="http://www.w3.org/2000/svg"
   xmlns:sodipodi="http://sodipodi.sourceforge.net/DTD/sodipodi-0.dtd"
   xmlns:inkscape="http://www.inkscape.org/namespaces/inkscape"
   width="57.023239pt"
   height="60.352558pt"
   viewBox="0 0 269.90999 285.66878"
   version="1.1"
   id="svg17"
   sodipodi:docname="bulb_icon_position.svg"
   inkscape:version="0.92.4 (5da689c313, 2019-01-14)">
  <metadata
     id="metadata23">
    <rdf:RDF>
      <cc:Work
         rdf:about="">
        <dc:format>image/svg+xml</dc:format>
        <dc:type
           rdf:resource="http://purl.org/dc/dcmitype/StillImage" />
        <dc:title></dc:title>
      </cc:Work>
    </rdf:RDF>
  </metadata>
  <defs
     id="defs21" />
  <sodipodi:namedview
     pagecolor="#ffffff"
     bordercolor="#666666"
     borderopacity="1"
     objecttolerance="10"
     gridtolerance="10"
     guidetolerance="10"
     inkscape:pageopacity="0"
     inkscape:pageshadow="2"
     inkscape:window-width="1680"
     inkscape:window-height="985"
     id="namedview19"
     showgrid="false"
     scale-x="3.55"
     fit-margin-top="0"
     fit-margin-left="0"
     fit-margin-right="0"
     fit-margin-bottom="0"
     inkscape:zoom="0.59"
     inkscape:cx="180.18182"
     inkscape:cy="-115.31656"
     inkscape:window-x="0"
     inkscape:window-y="36"
     inkscape:window-maximized="1"
     inkscape:current-layer="svg17" />
  <g
     id="#626262ff"
     transform="translate(-1.9,-6.9520236)">
    <path
       d="m 138.19,7.36 c 2.53,-1.09 5.14,0.26 7.52,1.07 1.33,2.39 3.48,4.63 3.28,7.55 0.02,10.68 0.03,21.36 -0.02,32.04 -0.84,1.51 -1.65,3.03 -2.45,4.56 -2.46,1.31 -5.16,3.13 -8.07,2.07 -3,-0.96 -4.88,-3.64 -6.11,-6.39 1.25,-11.38 0.01,-22.91 0.63,-34.34 0.06,-3.04 2.68,-5.33 5.22,-6.56 z"
       id="path2"
       inkscape:connector-curvature="0"
       style="opacity:1;fill:#626262" />
    <path
       d="m 34.04,45.99 c -0.42,-5.27 5.42,-8.62 10.13,-8 2.82,1.75 5.22,4.04 7.46,6.47 6.25,6.08 13.05,11.59 18.91,18.07 1.56,1.63 2.47,3.73 3.51,5.71 -1.23,1.99 -2.24,4.12 -3.15,6.28 -3.09,0.98 -6.44,3.73 -9.38,0.87 C 54.62,69.72 48.25,63.42 41.96,57.09 38.83,53.9 33.58,51.17 34.04,45.99 Z"
       id="path4"
       inkscape:connector-curvature="0"
       style="opacity:1;fill:#626262" />
    <path
       d="m 232.48,40.15 c 1.99,0.08 4.11,-0.31 6.02,0.4 2.8,1.82 5.35,4.84 4.7,8.42 -0.51,5.28 -5.66,7.8 -9.02,11.16 -6.46,5.62 -11.74,12.48 -18.57,17.69 -5.81,3.19 -13.67,-4.2 -11.04,-10.26 1.65,-3.24 4.47,-5.62 7.12,-8.02 7.37,-5.99 13.38,-13.43 20.79,-19.39 z"
       id="path6"
       inkscape:connector-curvature="0"
       style="opacity:1;fill:#626262" />
    <path
       d="m 131.38,64.58 c 0.06,-0.43 0.18,-1.28 0.24,-1.71 4.79,2.12 10.32,-1.81 15.09,1.04 1.9,0.21 3.8,0.39 5.7,0.55 1.67,0.47 3.37,0.8 5.09,1.02 7.06,1.89 14.22,4.01 20.44,7.96 2.2,1.38 4.3,2.93 6.6,4.15 5.99,3.83 10.19,9.72 15.7,14.12 1.95,4.49 5.45,8.08 7.48,12.54 10.09,18.3 11.56,40.93 4.66,60.59 -3.41,8.78 -8.02,17.17 -14.19,24.33 -6.61,8.1 -14.51,15.58 -18.32,25.54 -2.91,7.52 1.77,16.67 -3.65,23.4 -3.46,5.43 -10.37,6.39 -16.26,6.85 -13.34,-0.05 -26.69,0.05 -40.03,-0.04 -5.21,-0.72 -11.12,-1.98 -14.39,-6.52 -2.47,-2.85 -2.92,-6.73 -4.41,-10.08 -0.46,-3.42 0.13,-6.8 0.68,-10.16 -0.69,-8.16 -6.6,-14.35 -11.44,-20.44 -3.63,-3.98 -6.8,-8.36 -10.56,-12.23 -4.63,-7.14 -8.96,-14.55 -11.69,-22.66 -0.99,-3.28 -1.75,-6.62 -2.74,-9.9 0.24,-4.38 -1.43,-8.57 -1.31,-12.93 -0.22,-4.55 1.33,-8.92 1.35,-13.46 2.3,-10.01 5.84,-19.88 11.77,-28.35 1.14,-1.56 1.88,-3.35 2.47,-5.18 l 0.59,0.68 c 2.61,-4.08 6.43,-7.16 9.7,-10.68 6.62,-6.17 14.73,-10.51 22.95,-14.15 5.06,-2.27 10.57,-3.09 15.88,-4.54 0.65,0.06 1.95,0.19 2.6,0.26 m -4.41,16.61 c -13.3,3.29 -25.78,10.87 -33.83,22.02 -9.17,10.96 -13.39,25.57 -12.46,39.76 0.26,13.72 6.4,26.82 15.44,36.96 8.62,10.37 18.67,20.7 21.4,34.41 0.44,4.59 0.13,9.21 0.21,13.82 15.16,0.08 30.33,-0.08 45.49,0.08 -0.25,-4.42 -0.35,-8.87 0.12,-13.28 1.83,-9.65 7.97,-17.58 13.39,-25.48 3.34,-3.5 6.91,-6.98 8.99,-11.42 l 1.11,0.73 c 0.21,-0.54 0.63,-1.62 0.84,-2.16 0.62,-1.01 1.29,-1.98 2.03,-2.9 0.85,-0.89 1.56,-1.9 2.26,-2.91 3.87,-5.94 6.33,-12.7 7.75,-19.62 1.14,-5.13 0.03,-10.4 0.76,-15.57 -0.59,-10.83 -4.05,-21.76 -10.76,-30.38 -1.16,-1.91 -2.33,-3.94 -4.43,-4.95 -1.61,-3.1 -4.45,-5.19 -7.07,-7.38 -6.19,-5.12 -13.54,-8.78 -21.23,-11.04 -3.5,-1.13 -7.25,-0.83 -10.79,-1.77 -3.76,-0.64 -7.61,-0.6 -11.38,0.02 -2.53,0.84 -5.25,0.52 -7.84,1.06 z"
       id="path8"
       inkscape:connector-curvature="0"
       style="opacity:1;fill:#626262" />
    <path
       d="m 6.5,119.32 c 11.13,-1.05 22.37,-0.26 33.54,-0.46 4.55,-0.47 7.41,3.72 8.62,7.53 -0.91,4.3 -3.9,8.33 -8.62,8.54 -9.68,0.08 -19.37,-0.07 -29.04,-0.11 -4.24,-0.15 -6.73,-3.87 -9.1,-6.85 0.37,-3.4 2.53,-6.08 4.6,-8.65 z"
       id="path10"
       inkscape:connector-curvature="0"
       style="opacity:1;fill:#626262" />
    <path
       d="m 231.25,119.28 c 10.5,-1.04 21.19,-0.16 31.77,-0.47 4.4,-0.69 7.81,3.3 8.79,7.16 0,4.97 -4.91,9.11 -9.78,8.88 -8.67,0.01 -17.34,0.09 -26,0.14 -3.6,0.08 -7.72,-1.35 -9.1,-4.98 -2.41,-4 0.36,-9.05 4.32,-10.73 z"
       id="path12"
       inkscape:connector-curvature="0"
       style="opacity:1;fill:#626262" />
    <path
       d="m 119.65,250.28 c 13.93,0.09 27.87,-0.05 41.81,0.08 1.4,0.38 2.81,0.74 4.23,1.07 4.88,2.79 8.63,7.78 9.26,13.44 0.1,4.4 0.17,8.82 -0.05,13.22 -1.29,4.86 -3.57,10.04 -8.38,12.32 -3.36,1.28 -6.83,2.5 -10.49,2.15 -12.38,-0.37 -24.83,0.58 -37.16,-0.49 -6.22,-1.99 -11.44,-7.16 -12.21,-13.83 -0.68,-7.22 -1.3,-15.34 2.98,-21.66 1.37,-2.26 3.73,-3.58 5.81,-5.09 1.4,-0.4 2.8,-0.79 4.2,-1.21 m 3,16 c 0.36,3.26 0.38,6.55 0.2,9.82 11.91,-0.52 23.83,0.01 35.75,-0.29 0,-3.19 0.04,-6.38 0.15,-9.57 -12.03,0.04 -24.07,-0.04 -36.1,0.04 z"
       id="path14"
       inkscape:connector-curvature="0"
       style="opacity:1;fill:#626262" />
  </g>
</svg>
