<?xml version="1.0" encoding="UTF-8" standalone="no"?>
<!-- Generated by IcoMoon.io -->

<svg
   xmlns:dc="http://purl.org/dc/elements/1.1/"
   xmlns:cc="http://creativecommons.org/ns#"
   xmlns:rdf="http://www.w3.org/1999/02/22-rdf-syntax-ns#"
   xmlns:svg="http://www.w3.org/2000/svg"
   xmlns="http://www.w3.org/2000/svg"
   xmlns:sodipodi="http://sodipodi.sourceforge.net/DTD/sodipodi-0.dtd"
   xmlns:inkscape="http://www.inkscape.org/namespaces/inkscape"
   version="1.1"
   width="512"
   height="512"
   viewBox="0 0 512 512"
   id="svg9"
   sodipodi:docname="circle-right.svg"
   inkscape:version="0.92.4 (5da689c313, 2019-01-14)">
  <metadata
     id="metadata15">
    <rdf:RDF>
      <cc:Work
         rdf:about="">
        <dc:format>image/svg+xml</dc:format>
        <dc:type
           rdf:resource="http://purl.org/dc/dcmitype/StillImage" />
      </cc:Work>
    </rdf:RDF>
  </metadata>
  <defs
     id="defs13" />
  <sodipodi:namedview
     pagecolor="#ffffff"
     bordercolor="#666666"
     borderopacity="1"
     objecttolerance="10"
     gridtolerance="10"
     guidetolerance="10"
     inkscape:pageopacity="0"
     inkscape:pageshadow="2"
     inkscape:window-width="1680"
     inkscape:window-height="985"
     id="namedview11"
     showgrid="false"
     inkscape:zoom="0.4609375"
     inkscape:cx="256"
     inkscape:cy="260.33898"
     inkscape:window-x="0"
     inkscape:window-y="36"
     inkscape:window-maximized="1"
     inkscape:current-layer="svg9" />
  <title
     id="title2" />
  <g
     id="icomoon-ignore" />
  <path
     d="M256 0c-141.385 0-256 114.615-256 256s114.615 256 256 256 256-114.615 256-256-114.615-256-256-256zM256 464c-114.875 0-208-93.125-208-208s93.125-208 208-208 208 93.125 208 208-93.125 208-208 208z"
     id="path5"
     style="fill:#808080" />
  <path
     d="M177.372 353.372l45.256 45.256 142.627-142.628-142.628-142.627-45.254 45.254 97.372 97.373z"
     id="path7"
     style="fill:#808080" />
  <path
     style="fill:#999999;fill-opacity:0;stroke-width:2.16949153"
     d="M 217.38305,507.82013 C 165.64316,499.7064 117.87132,476.01132 80.05186,439.70313 3.5659828,366.27363 -19.318075,258.05282 20.611883,158.60602 41.426504,106.76657 87.382825,56.637594 138.44848,30.070322 250.7978,-28.380214 389.69095,4.945487 463.19709,107.98976 c 54.68581,76.66105 62.62344,179.49848 20.26043,262.48778 -50.38941,98.7131 -158.04596,154.28334 -266.07447,137.34259 z m 81.76749,-47.56519 C 362.0547,446.87015 413.30002,407.22497 442.84201,349.09013 475.06961,285.67036 471.26541,206.57922 433.02849,145.06255 421.7887,126.97964 391.76212,95.184523 375.62555,84.278617 357.56097,72.06966 330.27577,59.651907 308.95254,53.93508 290.61606,49.019012 283.68171,48.296344 255.34915,48.348746 229.28558,48.396952 219.4916,49.308741 206.15499,52.928573 155.78893,66.59896 114.82625,94.309285 86.842633,133.64068 60.062818,171.2801 47.921961,209.51636 47.921961,256.21695 c 0,59.52009 20.978443,109.05116 63.461589,149.83574 19.83652,19.0434 31.43619,26.99973 56.79931,38.9592 41.34437,19.4951 86.36098,24.73451 130.96768,15.24305 z"
     id="path825"
     inkscape:connector-curvature="0" />
  <path
     style="fill:#999999;fill-opacity:0;stroke-width:2.16949153"
     d="m 201.11284,374.45521 -21.64903,-21.73056 48.24215,-48.24215 48.24214,-48.24214 -48.81868,-48.85333 -48.81869,-48.85332 22.27278,-22.19699 22.27278,-22.19698 70.47539,70.50042 70.47539,70.50042 -70.5226,70.5226 -70.5226,70.52259 z"
     id="path827"
     inkscape:connector-curvature="0" />
  <path
     style="fill:#999999;fill-opacity:0;stroke-width:2.16949153"
     d=""
     id="path829"
     inkscape:connector-curvature="0" />
  <path
     style="fill:#280b0b;fill-opacity:0;stroke-width:2.16949153"
     d="m 201.11284,374.45521 -21.64903,-21.73056 48.24215,-48.24215 48.24214,-48.24214 -48.81868,-48.85333 -48.81869,-48.85332 22.27278,-22.19699 22.27278,-22.19698 70.47539,70.50042 70.47539,70.50042 -70.5226,70.5226 -70.5226,70.52259 z"
     id="path831"
     inkscape:connector-curvature="0" />
  <path
     style="fill:#44aa00;fill-opacity:0;stroke-width:2.16949153"
     d="M 217.38305,507.82013 C 165.64316,499.7064 117.87132,476.01132 80.05186,439.70313 3.5659828,366.27363 -19.318075,258.05282 20.611883,158.60602 41.426504,106.76657 87.382825,56.637594 138.44848,30.070322 250.7978,-28.380214 389.69095,4.945487 463.19709,107.98976 c 54.68581,76.66105 62.62344,179.49848 20.26043,262.48778 -50.38941,98.7131 -158.04596,154.28334 -266.07447,137.34259 z m 81.76749,-47.56519 C 362.0547,446.87015 413.30002,407.22497 442.84201,349.09013 475.06961,285.67036 471.26541,206.57922 433.02849,145.06255 421.7887,126.97964 391.76212,95.184523 375.62555,84.278617 357.56097,72.06966 330.27577,59.651907 308.95254,53.93508 290.61606,49.019012 283.68171,48.296344 255.34915,48.348746 229.28558,48.396952 219.4916,49.308741 206.15499,52.928573 155.78893,66.59896 114.82625,94.309285 86.842633,133.64068 60.062818,171.2801 47.921961,209.51636 47.921961,256.21695 c 0,59.52009 20.978443,109.05116 63.461589,149.83574 19.83652,19.0434 31.43619,26.99973 56.79931,38.9592 41.34437,19.4951 86.36098,24.73451 130.96768,15.24305 z"
     id="path833"
     inkscape:connector-curvature="0" />
  <path
     style="fill:#8a916f;fill-opacity:0;stroke-width:2.16949153"
     d="m 201.11284,374.45521 -21.64903,-21.73056 48.24215,-48.24215 48.24214,-48.24214 -48.81868,-48.85333 -48.81869,-48.85332 22.27278,-22.19699 22.27278,-22.19698 70.47539,70.50042 70.47539,70.50042 -70.5226,70.5226 -70.5226,70.52259 z"
     id="path837"
     inkscape:connector-curvature="0" />
  <path
     style="fill:#8a916f;fill-opacity:0;stroke-width:2.16949153"
     d="m 201.11284,374.45521 -21.64903,-21.73056 48.24215,-48.24215 48.24214,-48.24214 -48.81868,-48.85333 -48.81869,-48.85332 22.27278,-22.19699 22.27278,-22.19698 70.47539,70.50042 70.47539,70.50042 -70.5226,70.5226 -70.5226,70.52259 z"
     id="path839"
     inkscape:connector-curvature="0" />
  <path
     style="fill:#89a02c;fill-opacity:0;stroke-width:2.16949153"
     d="M 217.38305,507.82013 C 165.64316,499.7064 117.87132,476.01132 80.05186,439.70313 3.5659828,366.27363 -19.318075,258.05282 20.611883,158.60602 41.426504,106.76657 87.382825,56.637594 138.44848,30.070322 250.7978,-28.380214 389.69095,4.945487 463.19709,107.98976 c 54.68581,76.66105 62.62344,179.49848 20.26043,262.48778 -50.38941,98.7131 -158.04596,154.28334 -266.07447,137.34259 z m 81.76749,-47.56519 C 362.0547,446.87015 413.30002,407.22497 442.84201,349.09013 475.06961,285.67036 471.26541,206.57922 433.02849,145.06255 421.7887,126.97964 391.76212,95.184523 375.62555,84.278617 357.56097,72.06966 330.27577,59.651907 308.95254,53.93508 290.61606,49.019012 283.68171,48.296344 255.34915,48.348746 229.28558,48.396952 219.4916,49.308741 206.15499,52.928573 155.78893,66.59896 114.82625,94.309285 86.842633,133.64068 60.062818,171.2801 47.921961,209.51636 47.921961,256.21695 c 0,59.52009 20.978443,109.05116 63.461589,149.83574 19.83652,19.0434 31.43619,26.99973 56.79931,38.9592 41.34437,19.4951 86.36098,24.73451 130.96768,15.24305 z"
     id="path841"
     inkscape:connector-curvature="0" />
</svg>
