<?xml version="1.0" encoding="UTF-8" standalone="no"?>
<svg
   xmlns:dc="http://purl.org/dc/elements/1.1/"
   xmlns:cc="http://creativecommons.org/ns#"
   xmlns:rdf="http://www.w3.org/1999/02/22-rdf-syntax-ns#"
   xmlns:svg="http://www.w3.org/2000/svg"
   xmlns="http://www.w3.org/2000/svg"
   xmlns:sodipodi="http://sodipodi.sourceforge.net/DTD/sodipodi-0.dtd"
   xmlns:inkscape="http://www.inkscape.org/namespaces/inkscape"
   width="84.081879pt"
   height="60.039272pt"
   viewBox="0 0 409.19849 292.19114"
   version="1.1"
   id="svg5"
   sodipodi:docname="mail_icon_position.svg"
   inkscape:version="0.92.4 (5da689c313, 2019-01-14)">
  <metadata
     id="metadata11">
    <rdf:RDF>
      <cc:Work
         rdf:about="">
        <dc:format>image/svg+xml</dc:format>
        <dc:type
           rdf:resource="http://purl.org/dc/dcmitype/StillImage" />
        <dc:title></dc:title>
      </cc:Work>
    </rdf:RDF>
  </metadata>
  <defs
     id="defs9" />
  <sodipodi:namedview
     pagecolor="#ffffff"
     bordercolor="#666666"
     borderopacity="1"
     objecttolerance="10"
     gridtolerance="10"
     guidetolerance="10"
     inkscape:pageopacity="0"
     inkscape:pageshadow="2"
     inkscape:window-width="1680"
     inkscape:window-height="985"
     id="namedview7"
     showgrid="false"
     scale-x="3.65"
     fit-margin-top="0"
     fit-margin-left="0"
     fit-margin-right="0"
     fit-margin-bottom="0"
     inkscape:zoom="0.59"
     inkscape:cx="282.45641"
     inkscape:cy="-118.52634"
     inkscape:window-x="0"
     inkscape:window-y="36"
     inkscape:window-maximized="1"
     inkscape:current-layer="svg5" />
  <g
     id="#626262ff"
     transform="translate(-7.9115282,-3.9085851)">
    <path
       d="M 61.45,4.6 C 74.6,3.53 87.82,4.04 101,3.97 c 85.01,0.06 170.01,0.03 255.02,0 15.58,-0.39 30.4,7.06 41.91,17.1 7.83,8.02 14.97,17.34 17.72,28.4 1.75,8.39 1.34,17.02 1.46,25.53 -0.37,55.01 0.18,110.03 -0.23,165.03 0.34,15.01 -8.38,28.11 -18.44,38.41 -11.61,10.97 -27.3,17.93 -43.42,17.5 -95.01,0.17 -190.03,-0.03 -285.04,0.1 -16.9,0.87 -32.15,-7.88 -44.27,-18.78 C 17.62,268.29 10.49,257.76 8.57,245.57 7.76,237.4 7.93,229.19 7.92,221 8.21,167.66 7.76,114.31 8.09,60.97 7.66,45.9 16.56,32.89 26.21,22.25 36.26,13.67 47.92,5.84 61.45,4.6 m 16.61,33.64 c 34.95,42.01 69.26,84.54 104.04,126.68 6.21,7.44 11.57,15.67 18.85,22.14 4.01,3.21 9.44,5.29 14.58,3.68 10.34,-2.48 15.3,-13.14 21.76,-20.47 12.47,-14.24 23.98,-29.28 36.37,-43.58 8.32,-9.43 15.5,-19.79 23.93,-29.12 6.92,-7.49 12.52,-16.06 19.47,-23.53 10.57,-11.43 19.49,-24.24 29.94,-35.77 -9,0.55 -18,0.77 -27,0.77 -71.67,-0.06 -143.33,-0.07 -215,0 -8.99,0 -17.98,-0.23 -26.94,-0.8 m 266.4,57.21 c -31.2,37.16 -61.74,74.87 -93.06,111.95 -8.66,9.71 -20.46,16.61 -33.41,18.48 -14.65,0.99 -30.38,-3.33 -40.94,-13.93 -7.98,-6.78 -13.46,-15.84 -20.52,-23.47 C 119.55,143.44 83.03,98.01 45.61,53.34 c -2.79,5.81 -5.3,12.03 -4.68,18.64 0.21,51.68 -0.12,103.37 0.15,155.05 -1.5,16.33 11.49,34.89 28.89,33.96 95.02,-0.01 190.05,0.09 285.07,-0.04 15.58,0.92 29.2,-13.71 28.84,-28.93 0.29,-53.34 0.08,-106.7 0.1,-160.05 0.53,-6.97 -1.44,-13.58 -4.28,-19.81 -11.12,14.93 -23.78,28.62 -35.24,43.29 z"
       id="path2"
       inkscape:connector-curvature="0"
       style="opacity:1;fill:#626262" />
  </g>
</svg>
