<?xml version="1.0" encoding="UTF-8" standalone="no"?>
<svg
   xmlns:dc="http://purl.org/dc/elements/1.1/"
   xmlns:cc="http://creativecommons.org/ns#"
   xmlns:rdf="http://www.w3.org/1999/02/22-rdf-syntax-ns#"
   xmlns:svg="http://www.w3.org/2000/svg"
   xmlns="http://www.w3.org/2000/svg"
   xmlns:sodipodi="http://sodipodi.sourceforge.net/DTD/sodipodi-0.dtd"
   xmlns:inkscape="http://www.inkscape.org/namespaces/inkscape"
   width="60pt"
   height="60pt"
   viewBox="0 0 300 300"
   version="1.1"
   id="svg7"
   sodipodi:docname="phone_icon_position.svg"
   inkscape:version="0.92.4 (5da689c313, 2019-01-14)">
  <metadata
     id="metadata13">
    <rdf:RDF>
      <cc:Work
         rdf:about="">
        <dc:format>image/svg+xml</dc:format>
        <dc:type
           rdf:resource="http://purl.org/dc/dcmitype/StillImage" />
        <dc:title></dc:title>
      </cc:Work>
    </rdf:RDF>
  </metadata>
  <defs
     id="defs11" />
  <sodipodi:namedview
     pagecolor="#ffffff"
     bordercolor="#666666"
     borderopacity="1"
     objecttolerance="10"
     gridtolerance="10"
     guidetolerance="10"
     inkscape:pageopacity="0"
     inkscape:pageshadow="2"
     inkscape:window-width="1680"
     inkscape:window-height="985"
     id="namedview9"
     showgrid="false"
     scale-x="3.75"
     fit-margin-top="0"
     fit-margin-left="0"
     fit-margin-right="0"
     fit-margin-bottom="0"
     inkscape:zoom="0.59"
     inkscape:cx="200"
     inkscape:cy="-120"
     inkscape:window-x="0"
     inkscape:window-y="36"
     inkscape:window-maximized="1"
     inkscape:current-layer="svg7" />
  <g
     id="#626262ff">
    <path
       d="m 131.47,0 h 37.06 c 27.23,4.26 53.88,14.51 75.24,32.22 30.91,24.1 50.74,60.74 56.23,99.36 v 36.95 c -3.1,18.9 -8.62,37.58 -18.15,54.28 -15.83,28.91 -41.57,52.07 -71.64,65.42 -13.34,5.74 -27.51,9.31 -41.79,11.77 H 131.47 C 104.24,295.74 77.59,285.49 56.23,267.78 25.32,243.68 5.49,207.04 0,168.42 V 131.58 C 5.49,92.96 25.32,56.32 56.23,32.22 77.59,14.51 104.24,4.26 131.47,0 m 2.97,20.56 C 86.5,25.42 43.17,59.81 27.41,105.31 c -14.43,38.31 -8.72,83.37 13.98,117.31 23.86,35.75 66.35,59.18 109.62,57.49 34.83,0.48 69.45,-14.47 93.29,-39.82 19.89,-20.21 31.91,-47.35 35.55,-75.31 0.64,-16.37 0.83,-33.13 -3.87,-48.98 C 269.51,91.54 255.84,68.93 236.62,52.41 209.35,27.55 171,15.89 134.44,20.56 Z"
       id="path2"
       inkscape:connector-curvature="0"
       style="opacity:1;fill:#626262" />
    <path
       d="m 90.42,65.45 c 11.54,-2.68 22.88,5.85 26.62,16.44 2.91,10.41 6.76,20.98 5.76,31.97 -1.44,6.81 -7.56,11.14 -11.42,16.57 -1.49,1.41 -0.47,3.55 -0.1,5.22 6.46,19.57 20.59,36.43 38.49,46.58 6.08,2.88 12.18,6.71 19.03,7.33 5.77,-3.09 9.37,-10.01 16.06,-11.76 6.01,-1.2 12.36,-0.94 18.21,0.96 8.83,2.53 18.53,4.04 25.28,10.88 5.52,4.56 7.18,12.38 6.47,19.22 -0.89,6.48 -6.23,11.01 -10.4,15.55 -5.16,4.82 -10.43,11.63 -18.44,10.47 C 157.86,235.29 110.75,208.1 86.01,166.96 72.04,144.32 64.44,117.67 65.1,91.02 c 0.2,-5.14 4.37,-8.79 7.52,-12.38 5.16,-5.21 10.32,-11.43 17.8,-13.19 z"
       id="path4"
       inkscape:connector-curvature="0"
       style="opacity:1;fill:#626262" />
  </g>
</svg>
