<?xml version="1.0" encoding="UTF-8" standalone="no"?>
<!-- Generated by IcoMoon.io -->

<svg
   xmlns:dc="http://purl.org/dc/elements/1.1/"
   xmlns:cc="http://creativecommons.org/ns#"
   xmlns:rdf="http://www.w3.org/1999/02/22-rdf-syntax-ns#"
   xmlns:svg="http://www.w3.org/2000/svg"
   xmlns="http://www.w3.org/2000/svg"
   xmlns:sodipodi="http://sodipodi.sourceforge.net/DTD/sodipodi-0.dtd"
   xmlns:inkscape="http://www.inkscape.org/namespaces/inkscape"
   version="1.1"
   width="512"
   height="512"
   viewBox="0 0 512 512"
   id="svg7"
   sodipodi:docname="vk.svg"
   inkscape:version="0.92.4 (5da689c313, 2019-01-14)">
  <metadata
     id="metadata13">
    <rdf:RDF>
      <cc:Work
         rdf:about="">
        <dc:format>image/svg+xml</dc:format>
        <dc:type
           rdf:resource="http://purl.org/dc/dcmitype/StillImage" />
      </cc:Work>
    </rdf:RDF>
  </metadata>
  <defs
     id="defs11" />
  <sodipodi:namedview
     pagecolor="#ffffff"
     bordercolor="#666666"
     borderopacity="1"
     objecttolerance="10"
     gridtolerance="10"
     guidetolerance="10"
     inkscape:pageopacity="0"
     inkscape:pageshadow="2"
     inkscape:window-width="1680"
     inkscape:window-height="985"
     id="namedview9"
     showgrid="false"
     inkscape:zoom="0.4609375"
     inkscape:cx="256"
     inkscape:cy="256"
     inkscape:window-x="0"
     inkscape:window-y="36"
     inkscape:window-maximized="1"
     inkscape:current-layer="svg7" />
  <title
     id="title2" />
  <g
     id="icomoon-ignore" />
  <path
     d="M464 0h-416c-26.4 0-48 21.6-48 48v416c0 26.4 21.6 48 48 48h416c26.4 0 48-21.6 48-48v-416c0-26.4-21.6-48-48-48zM414.7 358.4l-46.8 0.7c0 0-10.1 2-23.3-7.1-17.5-12-34-43.3-46.9-39.2-13 4.1-12.6 32.2-12.6 32.2s0.1 6-2.9 9.2c-3.2 3.5-9.6 4.2-9.6 4.2h-20.9c0 0-46.2 2.8-86.9-39.6-44.4-46.2-83.6-137.9-83.6-137.9s-2.3-6 0.2-8.9c2.8-3.3 10.3-3.5 10.3-3.5l50.1-0.3c0 0 4.7 0.8 8.1 3.3 2.8 2 4.3 5.9 4.3 5.9s8.1 20.5 18.8 39c20.9 36.1 30.7 44 37.8 40.2 10.3-5.6 7.2-51.1 7.2-51.1s0.2-16.5-5.2-23.8c-4.2-5.7-12.1-7.4-15.5-7.8-2.8-0.4 1.8-6.9 7.8-9.9 9-4.4 24.9-4.7 43.7-4.5 14.6 0.1 18.9 1.1 24.6 2.4 17.3 4.2 11.4 20.3 11.4 58.9 0 12.4-2.2 29.8 6.7 35.5 3.8 2.5 13.2 0.4 36.7-39.5 11.1-18.9 19.5-41.1 19.5-41.1s1.8-4 4.6-5.7c2.9-1.7 6.8-1.2 6.8-1.2l52.7-0.3c0 0 15.8-1.9 18.4 5.3 2.7 7.5-5.9 25-27.4 53.7-35.3 47.1-39.3 42.7-9.9 69.9 28 26 33.8 38.7 34.8 40.3 11.4 19.2-13 20.7-13 20.7z"
     id="path5"
     style="fill:#81a4b5;fill-opacity:1" />
</svg>
