<?xml version="1.0" encoding="UTF-8" ?>
<!DOCTYPE svg PUBLIC "-//W3C//DTD SVG 1.1//EN" "http://www.w3.org/Graphics/SVG/1.1/DTD/svg11.dtd">
<svg width="100pt" height="100pt" viewBox="0 0 100 100" version="1.1" xmlns="http://www.w3.org/2000/svg">
<g id="#fbfbfbff">
<path fill="#fbfbfb" opacity="1.00" d=" M 0.00 17.62 C 1.24 13.76 5.39 12.35 9.09 12.31 C 36.40 12.32 63.72 12.32 91.03 12.31 C 94.54 12.41 98.69 13.54 100.00 17.19 L 100.00 21.32 C 99.47 23.44 98.33 25.33 97.18 27.16 C 84.94 44.94 72.79 62.79 60.58 80.59 C 58.52 84.04 55.28 87.45 51.02 87.64 C 46.87 88.18 42.93 85.63 40.77 82.23 C 28.42 64.21 16.09 46.19 3.76 28.16 C 2.14 25.93 0.80 23.50 0.00 20.85 L 0.00 17.62 Z" />
</g>
</svg>
