<?xml version="1.0" encoding="UTF-8" ?>
<!DOCTYPE svg PUBLIC "-//W3C//DTD SVG 1.1//EN" "http://www.w3.org/Graphics/SVG/1.1/DTD/svg11.dtd">
<svg width="250pt" height="250pt" viewBox="0 0 250 250" version="1.1" xmlns="http://www.w3.org/2000/svg">
<g id="#2a7c95ff">
<path fill="#2a7c95" opacity="1.00" d=" M 117.84 0.00 L 131.82 0.00 C 161.36 1.66 190.16 14.02 211.46 34.59 C 234.48 56.37 248.43 87.19 250.00 118.81 L 250.00 130.90 C 248.75 152.66 242.19 174.24 230.17 192.49 C 235.17 197.50 240.08 202.59 245.22 207.45 C 227.88 207.39 210.54 207.46 193.21 207.41 C 193.35 190.10 193.28 172.79 193.24 155.49 C 196.76 159.31 200.61 162.81 204.08 166.68 C 212.86 149.31 216.43 129.20 212.99 109.96 C 209.34 88.10 197.18 67.78 179.55 54.34 C 164.10 42.30 144.55 35.68 124.98 35.75 C 106.76 35.70 88.54 41.37 73.69 51.94 C 73.81 42.85 73.65 33.75 73.78 24.66 C 65.92 24.63 58.05 24.63 50.18 24.70 C 69.64 10.00 93.55 1.54 117.84 0.00 Z" />
<path fill="#2a7c95" opacity="1.00" d=" M 13.43 32.66 C 30.79 33.24 48.18 32.61 65.55 32.99 C 65.42 50.24 65.57 67.49 65.47 84.73 C 61.46 80.37 57.10 76.35 53.03 72.04 C 37.64 93.02 31.88 120.76 38.17 146.06 C 42.86 165.84 54.67 183.83 70.90 196.06 C 88.97 209.88 112.51 216.37 135.10 213.63 C 153.63 211.63 171.36 203.48 185.16 190.98 C 184.71 199.13 185.02 207.30 184.93 215.46 C 193.75 215.52 202.57 215.46 211.39 215.48 C 189.62 236.19 160.38 248.70 130.34 250.00 L 119.60 250.00 C 90.07 248.72 61.15 236.73 39.61 216.46 C 16.22 194.89 1.82 164.09 0.00 132.34 L 0.00 118.06 C 1.62 92.21 11.07 66.70 27.67 46.72 C 22.90 42.06 18.25 37.28 13.43 32.66 Z" />
<path fill="#2a7c95" opacity="1.00" d=" M 81.59 56.71 C 98.17 53.67 115.14 53.44 131.94 53.88 C 145.17 54.37 159.12 57.60 168.91 67.08 C 179.69 77.69 180.81 96.46 171.21 108.19 C 167.17 113.39 161.33 116.85 155.27 119.20 C 165.02 121.88 174.08 128.18 178.60 137.41 C 182.22 144.96 183.75 153.81 181.54 162.00 C 179.21 173.81 170.76 184.03 159.89 189.04 C 148.39 194.40 135.56 195.64 123.07 196.38 C 109.22 196.92 95.33 196.12 81.59 194.32 C 81.68 148.45 81.67 102.58 81.59 56.71 M 112.53 77.73 C 112.51 88.55 112.42 99.38 112.58 110.20 C 122.34 109.99 133.51 111.39 141.56 104.62 C 149.21 98.59 148.56 84.84 139.80 80.14 C 131.49 75.62 121.57 77.15 112.53 77.73 M 112.49 133.21 C 112.47 146.24 112.58 159.28 112.44 172.31 C 122.39 172.80 133.35 173.83 142.18 168.20 C 152.33 161.89 152.95 144.92 142.91 138.21 C 134.06 131.92 122.71 133.34 112.49 133.21 Z" />
</g>
</svg>
